<svg width="154" height="161" viewBox="0 0 154 161" fill="none" xmlns="http://www.w3.org/2000/svg">
<path d="M87.2755 127.383C120.256 127.383 146.993 100.645 146.993 67.5473C146.993 34.4493 120.138 7.71167 87.2755 7.71167C54.2952 7.71167 27.5576 34.4493 27.5576 67.5473C27.5576 100.645 54.2952 127.383 87.2755 127.383Z" fill="#2A2E37"/>
<path d="M142.635 28.4417C145.302 28.4417 147.464 26.2796 147.464 23.6125C147.464 20.9453 145.302 18.7832 142.635 18.7832C139.968 18.7832 137.806 20.9453 137.806 23.6125C137.806 26.2796 139.968 28.4417 142.635 28.4417Z" fill="#2A2E37"/>
<path d="M149.702 9.59605C151.523 9.59605 153 8.11948 153 6.29803C153 4.47658 151.523 3 149.702 3C147.88 3 146.404 4.47658 146.404 6.29803C146.404 8.11948 147.88 9.59605 149.702 9.59605Z" fill="#2A2E37"/>
<path d="M30.2663 28.3241C32.0877 28.3241 33.5643 26.8475 33.5643 25.0261C33.5643 23.2046 32.0877 21.728 30.2663 21.728C28.4448 21.728 26.9683 23.2046 26.9683 25.0261C26.9683 26.8475 28.4448 28.3241 30.2663 28.3241Z" fill="#2A2E37"/>
<path d="M10.1249 91.9293C13.5076 91.9293 16.2498 89.187 16.2498 85.8044C16.2498 82.4217 13.5076 79.6794 10.1249 79.6794C6.74221 79.6794 4 82.4217 4 85.8044C4 89.187 6.74221 91.9293 10.1249 91.9293Z" fill="#2A2E37"/>
<g filter="url(#filter0_d)">
<path d="M131.66 108.404C120.748 120.255 105.114 127.667 87.7486 127.667C73.8898 127.667 61.1334 122.946 51 115.015V17.3591C51 14.1287 53.6011 11.4927 56.8461 11.4927H114.843L131.66 28.3682V108.404Z" fill="#474E61"/>
</g>
<path d="M74.5926 107.186H66.1468C65.8317 107.186 65.5796 106.369 65.5796 105.389C65.5796 104.41 65.8317 103.593 66.1468 103.593H74.5926C74.9078 103.593 75.1599 104.41 75.1599 105.389C75.1599 106.532 74.9078 107.186 74.5926 107.186Z" fill="#393F4E"/>
<path d="M93.1779 31.7408H66.7222C66.1069 31.7408 65.5796 30.9117 65.5796 29.9445C65.5796 28.9773 66.1069 28.1482 66.7222 28.1482H93.1779C93.7932 28.1482 94.3205 28.9773 94.3205 29.9445C94.3205 30.9117 93.7932 31.7408 93.1779 31.7408Z" fill="#393F4E"/>
<path d="M73.2489 40.1236H66.3525C65.9363 40.1236 65.5796 39.2946 65.5796 38.3273C65.5796 37.3601 65.9363 36.531 66.3525 36.531H73.1895C73.6056 36.531 73.9624 37.3601 73.9624 38.3273C73.9624 39.2946 73.6056 40.1236 73.2489 40.1236Z" fill="#393F4E"/>
<path d="M114.994 86.8276H82.203H78.5888H67.6583C67.2176 86.8276 66.7769 87.5761 66.7769 88.6239C66.7769 89.5221 67.1295 90.4203 67.6583 90.4203H78.5888H82.203H114.994C115.435 90.4203 115.876 89.6718 115.876 88.6239C115.788 87.5761 115.435 86.8276 114.994 86.8276Z" fill="#393F4E"/>
<path d="M114.993 77.2473H102.806H98.6559H67.6599C67.2184 77.2473 66.7769 77.9958 66.7769 79.0436C66.7769 79.9418 67.1301 80.8399 67.6599 80.8399H98.6559H102.806H114.993C115.434 80.8399 115.876 80.0915 115.876 79.0436C115.788 77.9958 115.434 77.2473 114.993 77.2473Z" fill="#393F4E"/>
<path d="M116.251 68.8645H113.007H109.762H67.678C67.2274 68.8645 66.7769 69.613 66.7769 70.6608C66.7769 71.559 67.1373 72.4571 67.678 72.4571H109.762H113.367H116.161C116.611 72.4571 117.062 71.7087 117.062 70.6608C117.152 69.7627 116.701 68.8645 116.251 68.8645Z" fill="#393F4E"/>
<path d="M116.18 59.2842H105.728H103.137H67.6702C67.2235 59.2842 66.7769 60.0326 66.7769 61.0805C66.7769 61.9786 67.1342 62.8768 67.6702 62.8768H103.137H105.728H116.091C116.716 62.8768 117.073 62.1283 117.073 61.0805C117.073 60.1823 116.716 59.2842 116.18 59.2842Z" fill="#393F4E"/>
<path d="M114.37 11.9116V24.7872C114.37 26.9963 116.16 28.7872 118.37 28.7872H132.187" fill="#393F4E"/>
<g filter="url(#filter1_d)">
<path d="M73.8988 45.4288V82.5311C73.8988 86.8729 70.3447 90.0305 66.3956 90.0305H64.421V99.8981C64.421 102.266 61.6567 103.056 60.077 101.477L50.2043 90.0305H11.5033C7.15928 90.0305 4 86.4782 4 82.5311V45.4288C4 41.0871 7.55418 37.9294 11.5033 37.9294H66.3956C70.3447 37.9294 73.8988 41.4818 73.8988 45.4288Z" fill="url(#paint0_linear)"/>
</g>
<path d="M22.5605 64.7695V56.8754C22.5605 55.6913 23.3504 54.9019 24.5351 54.9019H33.2231C34.4078 54.9019 35.1976 55.6913 35.1976 56.8754V65.9536C35.1976 68.3218 35.1976 70.2953 34.8027 71.8742C34.4078 73.453 33.618 74.2424 32.4333 75.4265C31.2485 76.2159 29.274 76.6106 26.9046 77.0053V73.453C29.6689 73.0583 31.2485 71.4795 31.2485 68.3218C31.2485 68.3218 31.2485 67.9271 31.2485 67.5324H24.93C23.7453 66.743 22.5605 65.9536 22.5605 64.7695ZM41.9111 64.7695V56.8754C41.9111 55.6913 42.7009 54.9019 43.8856 54.9019H52.5736C53.7583 54.9019 54.5481 55.6913 54.5481 56.8754V65.9536C54.5481 68.3218 54.5481 70.2953 54.1532 71.8742C53.7583 73.453 52.9685 74.2424 51.7838 75.4265C50.599 76.2159 48.6245 76.6106 46.255 77.0053V73.453C49.0194 73.0583 50.5991 71.4795 50.5991 68.3218C50.5991 68.3218 50.5991 67.9271 50.5991 67.5324H44.2805C43.0958 66.743 41.9111 65.9536 41.9111 64.7695Z" fill="#474E61"/>
<defs>
<filter id="filter0_d" x="29" y="0.492676" width="124.66" height="160.175" filterUnits="userSpaceOnUse" color-interpolation-filters="sRGB">
<feFlood flood-opacity="0" result="BackgroundImageFix"/>
<feColorMatrix in="SourceAlpha" type="matrix" values="0 0 0 0 0 0 0 0 0 0 0 0 0 0 0 0 0 0 127 0" result="hardAlpha"/>
<feOffset dy="11"/>
<feGaussianBlur stdDeviation="11"/>
<feColorMatrix type="matrix" values="0 0 0 0 0 0 0 0 0 0 0 0 0 0 0 0 0 0 0.27 0"/>
<feBlend mode="normal" in2="BackgroundImageFix" result="effect1_dropShadow"/>
<feBlend mode="normal" in="SourceGraphic" in2="effect1_dropShadow" result="shape"/>
</filter>
<filter id="filter1_d" x="0" y="37.9294" width="77.8989" height="72.3689" filterUnits="userSpaceOnUse" color-interpolation-filters="sRGB">
<feFlood flood-opacity="0" result="BackgroundImageFix"/>
<feColorMatrix in="SourceAlpha" type="matrix" values="0 0 0 0 0 0 0 0 0 0 0 0 0 0 0 0 0 0 127 0" result="hardAlpha"/>
<feOffset dy="4"/>
<feGaussianBlur stdDeviation="2"/>
<feComposite in2="hardAlpha" operator="out"/>
<feColorMatrix type="matrix" values="0 0 0 0 0 0 0 0 0 0 0 0 0 0 0 0 0 0 0.25 0"/>
<feBlend mode="normal" in2="BackgroundImageFix" result="effect1_dropShadow"/>
<feBlend mode="normal" in="SourceGraphic" in2="effect1_dropShadow" result="shape"/>
</filter>
<linearGradient id="paint0_linear" x1="20.0337" y1="54.8263" x2="46.5776" y2="103.625" gradientUnits="userSpaceOnUse">
<stop stop-color="#E3EAF7"/>
<stop offset="1" stop-color="#ADB6C8"/>
</linearGradient>
</defs>
</svg>
