<svg xmlns="http://www.w3.org/2000/svg" version="1.1" xmlns:xlink="http://www.w3.org/1999/xlink" xmlns:svgjs="http://svgjs.com/svgjs" width="1440" height="560" preserveAspectRatio="none" viewBox="0 0 1440 560"><g mask="url(&quot;#SvgjsMask1433&quot;)" fill="none"><g mask="url(&quot;#SvgjsMask1434&quot;)"><path d="M1020 340L980 340M1220 340L1180 300L1140 300M1060 340L1020 300M1420 300L1380 260M1500 300L1460 300L1420 300L1380 300L1340 300L1300 340L1260 340L1220 340L1180 340L1140 340L1100 340L1060 340L1020 340L980 380L940 380L900 340" stroke="rgba(245, 158, 11, 1)" stroke-width="6.67"></path><path d="M890 340 a10 10 0 1 0 20 0 a10 10 0 1 0 -20 0zM970 340 a10 10 0 1 0 20 0 a10 10 0 1 0 -20 0zM1130 300 a10 10 0 1 0 20 0 a10 10 0 1 0 -20 0zM1010 300 a10 10 0 1 0 20 0 a10 10 0 1 0 -20 0zM1370 260 a10 10 0 1 0 20 0 a10 10 0 1 0 -20 0z" fill="rgba(245, 158, 11, 1)"></path><path d="M1460 260L1420 260M1380 220L1340 220L1300 220L1260 220M1140 260L1100 220L1060 220L1020 220M940 260L900 220L860 220L820 220M1500 260L1460 260L1420 220L1380 220L1340 260L1300 260L1260 260L1220 260L1180 260L1140 260L1100 260L1060 260L1020 260L980 260L940 260L900 260" stroke="rgba(109, 40, 217, 1)" stroke-width="6.67"></path><path d="M890 260 a10 10 0 1 0 20 0 a10 10 0 1 0 -20 0zM1410 260 a10 10 0 1 0 20 0 a10 10 0 1 0 -20 0zM1250 220 a10 10 0 1 0 20 0 a10 10 0 1 0 -20 0zM1010 220 a10 10 0 1 0 20 0 a10 10 0 1 0 -20 0zM810 220 a10 10 0 1 0 20 0 a10 10 0 1 0 -20 0z" fill="rgba(109, 40, 217, 1)"></path><path d="M1500 340L1460 340L1420 340L1380 340L1340 340L1300 380L1260 380L1220 380L1180 380" stroke="rgba(109, 40, 217, 1)" stroke-width="6.67"></path><path d="M1170 380 a10 10 0 1 0 20 0 a10 10 0 1 0 -20 0z" fill="rgba(109, 40, 217, 1)"></path><path d="M1380 180L1340 140L1300 140L1260 140M1420 180L1380 140L1340 100M1500 220L1460 220L1420 180L1380 180L1340 180L1300 180L1260 180L1220 180" stroke="rgba(245, 158, 11, 1)" stroke-width="6.67"></path><path d="M1210 180 a10 10 0 1 0 20 0 a10 10 0 1 0 -20 0zM1250 140 a10 10 0 1 0 20 0 a10 10 0 1 0 -20 0zM1330 100 a10 10 0 1 0 20 0 a10 10 0 1 0 -20 0z" fill="rgba(245, 158, 11, 1)"></path><path d="M1300 420L1260 460M1220 420L1180 460M1460 380L1420 420L1380 420L1340 460M1500 380L1460 380L1420 380L1380 380L1340 420L1300 420L1260 420L1220 420L1180 420L1140 420L1100 420L1060 420L1020 380" stroke="rgba(109, 40, 217, 1)" stroke-width="6.67"></path><path d="M1010 380 a10 10 0 1 0 20 0 a10 10 0 1 0 -20 0zM1250 460 a10 10 0 1 0 20 0 a10 10 0 1 0 -20 0zM1170 460 a10 10 0 1 0 20 0 a10 10 0 1 0 -20 0zM1330 460 a10 10 0 1 0 20 0 a10 10 0 1 0 -20 0z" fill="rgba(109, 40, 217, 1)"></path></g></g><defs><mask id="SvgjsMask1433"><rect width="1440" height="560" fill="#ffffff"></rect></mask><mask id="SvgjsMask1434"><rect width="1440" height="560" fill="white"></rect><path d="M895 340 a5 5 0 1 0 10 0 a5 5 0 1 0 -10 0zM975 340 a5 5 0 1 0 10 0 a5 5 0 1 0 -10 0zM1135 300 a5 5 0 1 0 10 0 a5 5 0 1 0 -10 0zM1015 300 a5 5 0 1 0 10 0 a5 5 0 1 0 -10 0zM1375 260 a5 5 0 1 0 10 0 a5 5 0 1 0 -10 0z" fill="black"></path><path d="M895 260 a5 5 0 1 0 10 0 a5 5 0 1 0 -10 0zM1415 260 a5 5 0 1 0 10 0 a5 5 0 1 0 -10 0zM1255 220 a5 5 0 1 0 10 0 a5 5 0 1 0 -10 0zM1015 220 a5 5 0 1 0 10 0 a5 5 0 1 0 -10 0zM815 220 a5 5 0 1 0 10 0 a5 5 0 1 0 -10 0z" fill="black"></path><path d="M1175 380 a5 5 0 1 0 10 0 a5 5 0 1 0 -10 0z" fill="black"></path><path d="M1215 180 a5 5 0 1 0 10 0 a5 5 0 1 0 -10 0zM1255 140 a5 5 0 1 0 10 0 a5 5 0 1 0 -10 0zM1335 100 a5 5 0 1 0 10 0 a5 5 0 1 0 -10 0z" fill="black"></path><path d="M1015 380 a5 5 0 1 0 10 0 a5 5 0 1 0 -10 0zM1255 460 a5 5 0 1 0 10 0 a5 5 0 1 0 -10 0zM1175 460 a5 5 0 1 0 10 0 a5 5 0 1 0 -10 0zM1335 460 a5 5 0 1 0 10 0 a5 5 0 1 0 -10 0z" fill="black"></path></mask></defs></svg>