<svg xmlns="http://www.w3.org/2000/svg" version="1.1" xmlns:xlink="http://www.w3.org/1999/xlink" xmlns:svgjs="http://svgjs.com/svgjs" width="1280" height="400" preserveAspectRatio="none" viewBox="0 0 1280 400"><g mask="url(&quot;#SvgjsMask2935&quot;)" fill="none"><g mask="url(&quot;#SvgjsMask2936&quot;)"><path d="M1224 216L1176 264L1128 264M1080 216L1032 264M984 216L936 168L888 168L840 168M1320 216L1272 216L1224 216L1176 216L1128 216L1080 216L1032 216L984 216L936 216" stroke="rgba(245, 158, 11, 1)" stroke-width="8"></path><path d="M924 216 a12 12 0 1 0 24 0 a12 12 0 1 0 -24 0zM1116 264 a12 12 0 1 0 24 0 a12 12 0 1 0 -24 0zM1020 264 a12 12 0 1 0 24 0 a12 12 0 1 0 -24 0zM828 168 a12 12 0 1 0 24 0 a12 12 0 1 0 -24 0z" fill="rgba(245, 158, 11, 1)"></path><path d="M1032 120L984 168M1080 168L1032 168M1128 168L1080 120M1320 168L1272 168L1224 168L1176 168L1128 168L1080 168L1032 120L984 120" stroke="rgba(196, 181, 253, 1)" stroke-width="8"></path><path d="M972 120 a12 12 0 1 0 24 0 a12 12 0 1 0 -24 0zM972 168 a12 12 0 1 0 24 0 a12 12 0 1 0 -24 0zM1020 168 a12 12 0 1 0 24 0 a12 12 0 1 0 -24 0zM1068 120 a12 12 0 1 0 24 0 a12 12 0 1 0 -24 0z" fill="rgba(196, 181, 253, 1)"></path><path d="M1320 120L1272 120L1224 120L1176 120" stroke="rgba(245, 158, 11, 1)" stroke-width="8"></path><path d="M1164 120 a12 12 0 1 0 24 0 a12 12 0 1 0 -24 0z" fill="rgba(245, 158, 11, 1)"></path></g></g><defs><mask id="SvgjsMask2935"><rect width="1280" height="400" fill="#ffffff"></rect></mask><mask id="SvgjsMask2936"><rect width="1280" height="400" fill="white"></rect><path d="M930 216 a6 6 0 1 0 12 0 a6 6 0 1 0 -12 0zM1122 264 a6 6 0 1 0 12 0 a6 6 0 1 0 -12 0zM1026 264 a6 6 0 1 0 12 0 a6 6 0 1 0 -12 0zM834 168 a6 6 0 1 0 12 0 a6 6 0 1 0 -12 0z" fill="black"></path><path d="M978 120 a6 6 0 1 0 12 0 a6 6 0 1 0 -12 0zM978 168 a6 6 0 1 0 12 0 a6 6 0 1 0 -12 0zM1026 168 a6 6 0 1 0 12 0 a6 6 0 1 0 -12 0zM1074 120 a6 6 0 1 0 12 0 a6 6 0 1 0 -12 0z" fill="black"></path><path d="M1170 120 a6 6 0 1 0 12 0 a6 6 0 1 0 -12 0z" fill="black"></path></mask></defs></svg>