<svg id="rada"
  xmlns="http://www.w3.org/2000/svg"
  xmlns:xlink="http://www.w3.org/1999/xlink" viewBox="0 0 460 450" shape-rendering="geometricPrecision" text-rendering="geometricPrecision">
  <style><![CDATA[
  #rect_tr {
    animation: rect_tr__tr 3000ms linear 1 normal forwards;
    animation-delay: 1s;
  }
  @keyframes rect_tr__tr { 
    0% {
      transform: translate(200px,225px) rotate(0);
    } 
    100% {
      transform: translate(200px,225px) rotate(-180deg)
    }
  } 
  #circles_tr {
    animation: circles_tr__tr 3000ms linear 1 normal forwards;
    animation-delay: 1s;
  }
  @keyframes circles_tr__tr { 
    0% {
      transform: translate(200px,225px) rotate(0); 
      animation-timing-function: cubic-bezier(0.5,0.5,0.25,1.5);
      opacity: 0;
    } 
    100% {
      transform: translate(200px,225px) rotate(180deg);
      opacity: 1;
    }
  }
  ]]></style>
  <g id="rada-g1" transform="matrix(1 0 0 1 28 0)" clip-rule="evenodd">
    <g id="rect_tr" transform="translate(200.457298,224.989922) rotate(0)">
      <g id="rect" transform="translate(-200.457298,-224.989922)" clip-rule="evenodd">
        <path id="rada-path1" d="M80.527,224.816C80.619,208.686,81.546,192.207,83.49,181.054C85.291,170.723,90.405,171.361,94.234,173.618L133,199.037C141.885,205.636,146.017,215.21,145.984,224.618L145.984,225.362C146.017,234.77,141.885,244.344,133,250.943L94.234,276.362C90.405,278.619,85.291,279.257,83.49,268.926C81.546,257.773,80.619,241.294,80.527,225.164C80.526,225.11,80.525,225.057,80.526,225.005L80.526,224.99L80.526,224.975C80.525,224.923,80.526,224.87,80.527,224.816Z" clip-rule="evenodd" fill="rgb(139,92,246)" fill-rule="evenodd" stroke="none" stroke-width="1" stroke-linejoin="round" stroke-miterlimit="2"/>
        <path id="rada-path2" d="M320.388,224.816C320.295,208.686,319.368,192.207,317.424,181.054C315.623,170.723,310.51,171.361,306.68,173.618L267.914,199.037C259.029,205.636,254.897,215.21,254.93,224.618L254.93,225.362C254.897,234.77,259.029,244.344,267.914,250.943L306.68,276.362C310.51,278.619,315.623,279.257,317.424,268.926C319.368,257.773,320.295,241.294,320.388,225.164C320.389,225.11,320.389,225.057,320.389,225.005L320.389,224.99L320.389,224.975C320.389,224.923,320.389,224.87,320.388,224.816Z" clip-rule="evenodd" fill="rgb(139,92,246)" fill-rule="evenodd" stroke="none" stroke-width="1" stroke-linejoin="round" stroke-miterlimit="2"/>
        <path id="rada-path3" d="M140.643,121.04C154.658,113.055,169.392,105.619,180.023,101.726C189.871,98.12,191.875,102.867,191.836,107.312L189.204,153.594C187.932,164.588,181.707,172.954,173.543,177.629L172.898,178.001C164.768,182.734,154.41,183.942,144.253,179.547L102.856,158.685C98.987,156.496,95.877,152.387,103.924,145.662C112.611,138.401,126.418,129.359,140.341,121.214C140.388,121.186,140.433,121.16,140.478,121.134L140.491,121.126L140.504,121.119C140.55,121.092,140.595,121.066,140.643,121.04Z" clip-rule="evenodd" fill="rgb(139,92,246)" fill-rule="evenodd" stroke="none" stroke-width="1" stroke-linejoin="round" stroke-miterlimit="2"/>
        <path id="rada-path4" d="M260.573,328.766C274.496,320.621,288.303,311.579,296.99,304.318C305.037,297.593,301.927,293.484,298.058,291.295L256.662,270.433C246.504,266.038,236.147,267.246,228.016,271.979L227.371,272.351C219.207,277.026,212.982,285.392,211.71,296.386L209.079,342.668C209.04,347.112,211.043,351.86,220.891,348.254C231.522,344.361,246.256,336.925,260.272,328.94C260.319,328.914,260.365,328.888,260.41,328.861L260.423,328.854L260.436,328.846C260.481,328.82,260.527,328.794,260.573,328.766Z" clip-rule="evenodd" fill="rgb(139,92,246)" fill-rule="evenodd" stroke="none" stroke-width="1" stroke-linejoin="round" stroke-miterlimit="2"/>
        <path id="rada-path5" d="M260.272,121.04C246.256,113.055,231.522,105.619,220.891,101.726C211.043,98.12,209.04,102.867,209.079,107.312L211.71,153.594C212.982,164.588,219.207,172.954,227.371,177.629L228.016,178.001C236.147,182.734,246.504,183.942,256.662,179.547L298.058,158.685C301.927,156.496,305.037,152.387,296.99,145.662C288.303,138.401,274.496,129.359,260.573,121.214C260.527,121.186,260.481,121.16,260.436,121.134L260.423,121.126L260.41,121.119C260.365,121.092,260.319,121.066,260.272,121.04Z" clip-rule="evenodd" fill="rgb(139,92,246)" fill-rule="evenodd" stroke="none" stroke-width="1" stroke-linejoin="round" stroke-miterlimit="2"/>
        <path id="rada-path6" d="M140.341,328.766C126.418,320.621,112.611,311.579,103.924,304.318C95.877,297.593,98.987,293.484,102.856,291.295L144.253,270.433C154.41,266.038,164.768,267.246,172.898,271.979L173.543,272.351C181.707,277.026,187.932,285.392,189.204,296.386L191.836,342.668C191.875,347.112,189.871,351.86,180.023,348.254C169.392,344.361,154.658,336.925,140.643,328.94C140.595,328.914,140.55,328.888,140.504,328.861L140.491,328.854L140.478,328.846C140.433,328.82,140.388,328.794,140.341,328.766Z" clip-rule="evenodd" fill="rgb(139,92,246)" fill-rule="evenodd" stroke="none" stroke-width="1" stroke-linejoin="round" stroke-miterlimit="2"/>
      </g>
    </g>
    <g id="circles_tr" transform="translate(200.60701,224.99501) rotate(0)">
      <g id="circles" transform="translate(-200.60701,-224.99501)" clip-rule="evenodd">
        <circle id="rada-circle1" r="42.962" transform="matrix(1 0 0 1 200.606 42.962)" clip-rule="evenodd" fill="rgb(251,191,36)" fill-rule="evenodd" stroke="none" stroke-width="1" stroke-linejoin="round" stroke-miterlimit="2"/>
        <circle id="rada-circle2" r="42.962" transform="matrix(1 0 0 1 200.608 407.028)" clip-rule="evenodd" fill="rgb(251,191,36)" fill-rule="evenodd" stroke="none" stroke-width="1" stroke-linejoin="round" stroke-miterlimit="2"/>
        <circle id="rada-circle3" r="42.962" transform="matrix(1 0 0 1 358.252 133.976)" clip-rule="evenodd" fill="rgb(251,191,36)" fill-rule="evenodd" stroke="none" stroke-width="1" stroke-linejoin="round" stroke-miterlimit="2"/>
        <circle id="rada-circle4" r="42.962" transform="matrix(1 0 0 1 42.962 316.009)" clip-rule="evenodd" fill="rgb(251,191,36)" fill-rule="evenodd" stroke="none" stroke-width="1" stroke-linejoin="round" stroke-miterlimit="2"/>
        <circle id="rada-circle5" r="42.962" transform="matrix(1 0 0 1 42.962 133.978)" clip-rule="evenodd" fill="rgb(251,191,36)" fill-rule="evenodd" stroke="none" stroke-width="1" stroke-linejoin="round" stroke-miterlimit="2"/>
        <circle id="rada-circle6" r="42.962" transform="matrix(1 0 0 1 358.249 316.009)" clip-rule="evenodd" fill="rgb(251,191,36)" fill-rule="evenodd" stroke="none" stroke-width="1" stroke-linejoin="round" stroke-miterlimit="2"/>
      </g>
    </g>
  </g>
</svg>