<?xml version="1.0" encoding="UTF-8" standalone="no"?><!DOCTYPE svg PUBLIC "-//W3C//DTD SVG 1.1//EN" "http://www.w3.org/Graphics/SVG/1.1/DTD/svg11.dtd">
<svg width="100%" height="100%" viewBox="0 0 402 450" version="1.1"
  xmlns="http://www.w3.org/2000/svg"
  xmlns:xlink="http://www.w3.org/1999/xlink" xml:space="preserve"
  xmlns:serif="http://www.serif.com/" style="fill-rule:evenodd;clip-rule:evenodd;stroke-linejoin:round;stroke-miterlimit:2;">
  <g>
    <g>
      <path d="M80.527,224.816c0.092,-16.13 1.019,-32.609 2.963,-43.762c1.801,-10.331 6.915,-9.693 10.744,-7.436l38.766,25.419c8.885,6.599 13.017,16.173 12.984,25.581l0,0.744c0.033,9.408 -4.099,18.982 -12.984,25.581l-38.766,25.419c-3.829,2.257 -8.943,2.895 -10.744,-7.436c-1.944,-11.153 -2.871,-27.632 -2.963,-43.762c-0.001,-0.054 -0.002,-0.107 -0.001,-0.159l-0,-0.015l-0,-0.015c-0.001,-0.052 -0,-0.105 0.001,-0.159Z" style="fill:#374151;"/>
      <path d="M320.388,224.816c-0.093,-16.13 -1.02,-32.609 -2.964,-43.762c-1.801,-10.331 -6.914,-9.693 -10.744,-7.436l-38.766,25.419c-8.885,6.599 -13.017,16.173 -12.984,25.581l0,0.744c-0.033,9.408 4.099,18.982 12.984,25.581l38.766,25.419c3.83,2.257 8.943,2.895 10.744,-7.436c1.944,-11.153 2.871,-27.632 2.964,-43.762c0.001,-0.054 0.001,-0.107 0.001,-0.159l-0,-0.015l-0,-0.015c-0,-0.052 -0,-0.105 -0.001,-0.159Z" style="fill:#374151;"/>
      <path d="M140.643,121.04c14.015,-7.985 28.749,-15.421 39.38,-19.314c9.848,-3.606 11.852,1.141 11.813,5.586l-2.632,46.282c-1.272,10.994 -7.497,19.36 -15.661,24.035l-0.645,0.372c-8.13,4.733 -18.488,5.941 -28.645,1.546l-41.397,-20.862c-3.869,-2.189 -6.979,-6.298 1.068,-13.023c8.687,-7.261 22.494,-16.303 36.417,-24.448c0.047,-0.028 0.092,-0.054 0.137,-0.08l0.013,-0.008l0.013,-0.007c0.046,-0.027 0.091,-0.053 0.139,-0.079Z" style="fill:#374151;"/>
      <path d="M260.573,328.766c13.923,-8.145 27.73,-17.187 36.417,-24.448c8.047,-6.725 4.937,-10.834 1.068,-13.023l-41.396,-20.862c-10.158,-4.395 -20.515,-3.187 -28.646,1.546l-0.645,0.372c-8.164,4.675 -14.389,13.041 -15.661,24.035l-2.631,46.282c-0.039,4.444 1.964,9.192 11.812,5.586c10.631,-3.893 25.365,-11.329 39.381,-19.314c0.047,-0.026 0.093,-0.052 0.138,-0.079l0.013,-0.007l0.013,-0.008c0.045,-0.026 0.091,-0.052 0.137,-0.08Z" style="fill:#374151;"/>
      <path d="M260.272,121.04c-14.016,-7.985 -28.75,-15.421 -39.381,-19.314c-9.848,-3.606 -11.851,1.141 -11.812,5.586l2.631,46.282c1.272,10.994 7.497,19.36 15.661,24.035l0.645,0.372c8.131,4.733 18.488,5.941 28.646,1.546l41.396,-20.862c3.869,-2.189 6.979,-6.298 -1.068,-13.023c-8.687,-7.261 -22.494,-16.303 -36.417,-24.448c-0.046,-0.028 -0.092,-0.054 -0.137,-0.08l-0.013,-0.008l-0.013,-0.007c-0.045,-0.027 -0.091,-0.053 -0.138,-0.079Z" style="fill:#374151;"/>
      <path d="M140.341,328.766c-13.923,-8.145 -27.73,-17.187 -36.417,-24.448c-8.047,-6.725 -4.937,-10.834 -1.068,-13.023l41.397,-20.862c10.157,-4.395 20.515,-3.187 28.645,1.546l0.645,0.372c8.164,4.675 14.389,13.041 15.661,24.035l2.632,46.282c0.039,4.444 -1.965,9.192 -11.813,5.586c-10.631,-3.893 -25.365,-11.329 -39.38,-19.314c-0.048,-0.026 -0.093,-0.052 -0.139,-0.079l-0.013,-0.007l-0.013,-0.008c-0.045,-0.026 -0.09,-0.052 -0.137,-0.08Z" style="fill:#374151;"/>
    </g>
    <g>
      <circle cx="200.606" cy="42.962" r="42.962" style="fill:#9ca3af;"/>
      <circle cx="200.608" cy="407.028" r="42.962" style="fill:#9ca3af;"/>
      <circle cx="358.252" cy="133.976" r="42.962" style="fill:#9ca3af;"/>
      <circle cx="42.962" cy="316.009" r="42.962" style="fill:#9ca3af;"/>
      <circle cx="42.962" cy="133.978" r="42.962" style="fill:#9ca3af;"/>
      <circle cx="358.249" cy="316.009" r="42.962" style="fill:#9ca3af;"/>
    </g>
  </g>
</svg>