<!-- by NNTH -->
<svg id="eq9lvGFrgXI1"
  xmlns="http://www.w3.org/2000/svg"
  xmlns:xlink="http://www.w3.org/1999/xlink" viewBox="0 2 36 36" shape-rendering="geometricPrecision" text-rendering="geometricPrecision">

  <style><![CDATA[
  #eq9lvGFrgXI2_tr {
    animation: eq9lvGFrgXI2_tr__tr 3000ms linear 1 normal forwards;
    animation-delay: 1s;
  }
  @keyframes eq9lvGFrgXI2_tr__tr { 
    0% {
      transform: translate(18px,20px) rotate(-180deg)
    }
    100% {
      transform: translate(18px,20px) rotate(0deg)
    }
  } 
  #eq9lvGFrgXI5_tr {
    animation: eq9lvGFrgXI5_tr__tr 3000ms linear 1 normal forwards;
    animation-delay: 1s;
  }
  @keyframes eq9lvGFrgXI5_tr__tr { 
    0% {
      transform: translate(18px,20px) rotate(900deg); 
      animation-timing-function: cubic-bezier(0.49,0.49,0.32,1.275)
    } 
    100% {
      transform: translate(18px,20px) rotate(720deg)
    }
  }
  ]]></style>

  <g id="eq9lvGFrgXI2_tr" transform="translate(18.016069,20) rotate(180)">
    <g id="eq9lvGFrgXI2" transform="translate(-20.00002,-20)">
      <path id="eq9lvGFrgXI3" d="M18,11.1547C19.2376,10.4402,20.7624,10.4402,22,11.1547L26.6603,13.8453C27.8979,14.5598,28.6603,15.8803,28.6603,17.3094L28.6603,22.6906C28.6603,24.1197,27.8979,25.4402,26.6603,26.1547L22,28.8453C20.7624,29.5598,19.2376,29.5598,18,28.8453L13.3397,26.1547C12.1021,25.4402,11.3397,24.1197,11.3397,22.6906L11.3397,17.3094C11.3397,15.8803,12.1021,14.5598,13.3397,13.8453L18,11.1547Z" fill="rgb(139,92,246)" stroke="none" stroke-width="1"/>
      <path id="eq9lvGFrgXI4" d="M20,2L20.8806,15.1519C20.9757,16.5717,22.4811,17.4409,23.7582,16.8133L35.5885,11L24.6389,18.3386C23.4568,19.1308,23.4568,20.8692,24.6389,21.6614L35.5885,29L23.7582,23.1867C22.4811,22.5591,20.9757,23.4283,20.8806,24.848L20,38L19.1194,24.8481C19.0243,23.4283,17.5189,22.5591,16.2418,23.1867L4.41154,29L15.3611,21.6614C16.5432,20.8692,16.5432,19.1308,15.3611,18.3386L4.41154,11L16.2418,16.8133C17.5189,17.4409,19.0243,16.5717,19.1194,15.152L20,2Z" fill="rgb(255,255,255)" stroke="none" stroke-width="1"/>
    </g>
  </g>
  <g id="eq9lvGFrgXI5_tr" transform="translate(18.016006,19.999998) rotate(900)">
    <g id="eq9lvGFrgXI5" transform="translate(-19.999967,-19.999998)">
      <circle id="eq9lvGFrgXI6" r="3" transform="matrix(-0.015173 -0.999885 0.999885 -0.015173 31.614943 26.335998)" fill="rgb(251,191,36)" stroke="none" stroke-width="1"/>
      <circle id="eq9lvGFrgXI7" r="3" transform="matrix(-0.005042 0.999987 -0.999987 -0.005042 8.253402 26.275046)" fill="rgb(251,191,36)" stroke="none" stroke-width="1"/>
      <circle id="eq9lvGFrgXI8" r="3" transform="matrix(-0.011582 0.999933 -0.999933 -0.011582 31.695063 13.724545)" fill="rgb(251,191,36)" stroke="none" stroke-width="1"/>
      <circle id="eq9lvGFrgXI9" r="3" transform="matrix(1 0 0 1 20.00003 33)" fill="rgb(251,191,36)" stroke="none" stroke-width="1"/>
      <circle id="eq9lvGFrgXI10" r="3" transform="matrix(1 0 0 1 20.00003 7)" fill="rgb(251,191,36)" stroke="none" stroke-width="1"/>
      <circle id="eq9lvGFrgXI11" r="3" transform="matrix(0.011863 -0.99993 0.99993 0.011863 8.304289 13.654201)" fill="rgb(251,191,36)" stroke="none" stroke-width="1"/>
    </g>
  </g>
</svg>