<svg width="186" height="257" viewBox="0 0 186 257" fill="none" xmlns="http://www.w3.org/2000/svg">
<g filter="url(#filter0_bi_0_5)">
<path fill-rule="evenodd" clip-rule="evenodd" d="M92.2089 256.103H85.9916V256.054C79.0401 255.355 73.5565 247.293 73.5565 237.451C73.5565 227.608 79.0401 219.546 85.9916 218.847V218.798H86.9611C86.9651 218.798 86.9691 218.798 86.9731 218.798C86.9771 218.798 86.9811 218.798 86.9851 218.798H92.2089H92.5363V218.804C99.7948 219.045 105.625 227.301 105.625 237.451C105.625 247.6 99.7948 255.856 92.5363 256.097V256.103H92.2089Z" fill="url(#paint0_linear_0_5)"/>
</g>
<g opacity="0.55" filter="url(#filter1_i_0_5)">
<path d="M17.5564 98.5391C33.9614 91.8315 56.9644 91.8315 89.4727 91.8315C122.275 91.8315 143.257 91.8315 161.91 98.3759C161.91 98.3759 161.799 98.628 161.608 98.8648C151.199 111.76 134.953 132.696 122.071 149.296L122.07 149.297C113.124 160.826 105.8 170.263 103.182 173.464C96.7566 181.316 93.3657 188.634 92.4734 191.311H86.7619C85.8696 188.634 82.4786 181.316 76.0538 173.464C73.4349 170.263 66.1111 160.825 57.1646 149.296L57.1641 149.295C44.2092 132.601 27.852 111.522 17.4504 98.6461C17.3907 98.6288 17.3314 98.6115 17.2724 98.5943C17.3114 98.5867 17.3505 98.5791 17.39 98.5714C17.3726 98.5498 17.3551 98.5283 17.3377 98.5067C17.4103 98.5176 17.4832 98.5284 17.5564 98.5391Z" fill="#47484F"/>
</g>
<g filter="url(#filter2_i_0_5)">
<circle cx="67.9003" cy="100.573" r="20.2885" transform="rotate(-16.0372 67.9003 100.573)" fill="#47484F"/>
</g>
<g clip-path="url(#clip0_0_5)">
<path d="M75.5912 92.0779C74.9903 92.5816 74.3093 93.0002 73.5592 93.3164C74.2159 92.6134 74.6087 91.6856 74.6371 90.7064C74.0218 91.3595 73.2916 91.9156 72.4661 92.3395C71.5519 91.7942 70.4187 91.615 69.3143 91.9324C66.8348 92.6451 65.6778 95.4822 66.9281 97.7227C63.6913 98.48 60.4222 97.7647 57.8598 95.9858C57.3498 98.001 58.4832 100.12 60.5216 100.772C59.8871 100.932 59.2448 100.93 58.6449 100.791C59.1142 102.582 60.8679 103.88 62.8213 103.72C62.323 104.022 61.7408 104.226 61.1055 104.284C62.0323 105.669 63.7693 106.371 65.4599 105.919C64.2092 107.649 62.3376 108.799 60.2313 109.145C62.2441 109.746 64.4461 109.801 66.6144 109.178C73.7447 107.128 76.0422 99.9481 74.2463 94.6168C74.8408 93.8591 75.2977 92.9957 75.5912 92.0779V92.0779Z" fill="#FBBF24"/>
</g>
<g filter="url(#filter3_i_0_5)">
<circle cx="114.084" cy="56.0771" r="16.051" transform="rotate(29.4095 114.084 56.0771)" fill="#47484F"/>
</g>
<g clip-path="url(#clip1_0_5)">
<path d="M107.385 50.6653C107.665 51.5244 107.202 52.4461 106.35 52.7245C105.497 53.0029 104.579 52.5323 104.299 51.6732C104.018 50.8146 104.481 49.8923 105.334 49.6139C106.186 49.3355 107.104 49.8067 107.385 50.6653ZM108.311 53.4608L105.201 54.4768L108.452 64.4307L111.563 63.4147L108.311 53.4608ZM113.277 51.8388L110.187 52.8483L113.438 62.8023L116.529 61.7925L114.822 56.5673C113.873 53.662 117.547 52.1992 118.573 55.3422L120.28 60.5674L123.383 59.5538L121.324 53.2511C119.723 48.3488 114.231 50.3403 113.715 53.1795L113.277 51.8388Z" fill="#FBBF24"/>
</g>
<g filter="url(#filter4_i_0_5)">
<circle cx="122.254" cy="92.7527" r="16.051" transform="rotate(29.4095 122.254 92.7527)" fill="#47484F"/>
</g>
<g clip-path="url(#clip2_0_5)">
<path d="M120.024 89.8679H118.061V92.4858H120.024V100.339H123.296V92.4858H125.68L125.914 89.8679H123.296V88.7769C123.296 88.1519 123.422 87.9045 124.026 87.9045H125.914V84.6321H123.422C121.069 84.6321 120.024 85.6682 120.024 87.6525V89.8679Z" fill="#FBBF24"/>
</g>
<g filter="url(#filter5_bi_0_5)">
<path d="M57.1647 149.296C66.1111 160.825 73.4349 170.263 76.0538 173.464C82.4787 181.316 85.8696 188.634 86.7619 191.311H92.4734C93.3657 188.634 96.7567 181.316 103.182 173.464C105.8 170.263 113.124 160.825 122.071 149.296C135.072 132.541 151.502 111.37 161.898 98.5067C153.729 102.303 117.406 104.318 94.8269 104.266C92.966 104.262 90.929 104.266 89.2639 104.266C67.6665 104.266 20.872 102.907 17.3377 98.5067C27.7337 111.37 44.1628 132.541 57.1647 149.296Z" fill="url(#paint1_linear_0_5)"/>
</g>
<g filter="url(#filter6_di_0_5)">
<circle cx="68.3208" cy="61.0715" r="3.27234" fill="#FFCE34" fill-opacity="0.65" shape-rendering="crispEdges"/>
</g>
<g filter="url(#filter7_di_0_5)">
<circle cx="17.2723" cy="70.9494" r="3.27234" fill="#FFCE34" fill-opacity="0.65" shape-rendering="crispEdges"/>
</g>
<g filter="url(#filter8_di_0_5)">
<circle cx="71.5932" cy="24.4213" r="3.27234" fill="#FFCE34" fill-opacity="0.65" shape-rendering="crispEdges"/>
</g>
<g filter="url(#filter9_di_0_5)">
<circle cx="159.619" cy="55.5085" r="4.90851" fill="#FFCE34" fill-opacity="0.65" shape-rendering="crispEdges"/>
</g>
<g filter="url(#filter10_i_0_5)">
<circle cx="89.5911" cy="205.382" r="5.56298" fill="#47453E"/>
</g>
<g filter="url(#filter11_i_0_5)">
<ellipse cx="86.9731" cy="237.451" rx="13.4166" ry="18.6523" fill="url(#paint2_linear_0_5)"/>
</g>
<path fill-rule="evenodd" clip-rule="evenodd" d="M82.4253 237.768C82.4287 236.924 82.4624 236.061 82.5332 235.477C82.5988 234.936 82.785 234.97 82.9245 235.088L84.3362 236.419C84.6597 236.764 84.8102 237.265 84.809 237.758V237.797C84.8102 238.29 84.6597 238.791 84.3362 239.136L82.9245 240.467C82.785 240.585 82.5988 240.619 82.5332 240.078C82.4624 239.494 82.4287 238.631 82.4253 237.787C82.4253 237.784 82.4253 237.781 82.4253 237.778V237.778V237.777C82.4253 237.774 82.4253 237.771 82.4253 237.768Z" fill="#8362EE"/>
<path fill-rule="evenodd" clip-rule="evenodd" d="M91.1599 237.768C91.1565 236.924 91.1227 236.061 91.0519 235.477C90.9863 234.936 90.8001 234.97 90.6607 235.088L89.249 236.419C88.9254 236.764 88.7749 237.265 88.7761 237.758V237.797C88.7749 238.29 88.9254 238.791 89.249 239.136L90.6607 240.467C90.8001 240.585 90.9863 240.619 91.0519 240.078C91.1227 239.494 91.1565 238.631 91.1599 237.787C91.1599 237.784 91.1599 237.781 91.1599 237.778V237.778V237.777C91.1599 237.774 91.1599 237.771 91.1599 237.768Z" fill="#8362EE"/>
<path fill-rule="evenodd" clip-rule="evenodd" d="M84.6144 232.335C85.1248 231.917 85.6613 231.527 86.0485 231.324C86.4071 231.135 86.4801 231.383 86.4786 231.616L86.3828 234.039C86.3365 234.615 86.1098 235.053 85.8125 235.298L85.789 235.317C85.4929 235.565 85.1157 235.628 84.7459 235.398L83.2384 234.306C83.0975 234.191 82.9842 233.976 83.2773 233.624C83.5936 233.244 84.0964 232.77 84.6034 232.344C84.6051 232.342 84.6068 232.341 84.6084 232.34L84.6089 232.339L84.6093 232.339C84.611 232.338 84.6127 232.336 84.6144 232.335Z" fill="#8362EE"/>
<path fill-rule="evenodd" clip-rule="evenodd" d="M88.9817 243.211C89.4888 242.785 89.9916 242.311 90.3079 241.931C90.6009 241.579 90.4877 241.364 90.3468 241.249L88.8393 240.157C88.4694 239.927 88.0923 239.99 87.7962 240.238L87.7727 240.257C87.4754 240.502 87.2487 240.94 87.2024 241.516L87.1065 243.939C87.1051 244.172 87.1781 244.42 87.5367 244.231C87.9238 244.028 88.4604 243.638 88.9708 243.22C88.9725 243.219 88.9742 243.217 88.9758 243.216L88.9763 243.216L88.9768 243.215C88.9784 243.214 88.9801 243.213 88.9817 243.211Z" fill="#8362EE"/>
<path fill-rule="evenodd" clip-rule="evenodd" d="M88.9708 232.335C88.4604 231.917 87.9238 231.527 87.5367 231.324C87.1781 231.135 87.1051 231.383 87.1065 231.616L87.2024 234.039C87.2487 234.615 87.4754 235.053 87.7727 235.298L87.7962 235.317C88.0923 235.565 88.4694 235.628 88.8393 235.398L90.3468 234.306C90.4877 234.191 90.6009 233.976 90.3079 233.624C89.9916 233.244 89.4888 232.77 88.9817 232.344C88.9801 232.342 88.9784 232.341 88.9768 232.34L88.9763 232.339L88.9758 232.339C88.9742 232.338 88.9725 232.336 88.9708 232.335Z" fill="#8362EE"/>
<path fill-rule="evenodd" clip-rule="evenodd" d="M84.6034 243.211C84.0964 242.785 83.5936 242.311 83.2773 241.931C82.9842 241.579 83.0975 241.364 83.2384 241.249L84.7459 240.157C85.1157 239.927 85.4929 239.99 85.789 240.238L85.8125 240.257C86.1098 240.502 86.3365 240.94 86.3828 241.516L86.4786 243.939C86.4801 244.172 86.4071 244.42 86.0485 244.231C85.6613 244.028 85.1248 243.638 84.6144 243.22C84.6127 243.219 84.611 243.217 84.6093 243.216L84.6089 243.216L84.6084 243.215C84.6068 243.214 84.6051 243.213 84.6034 243.211Z" fill="#8362EE"/>
<path d="M86.7981 230.496C87.6622 230.496 88.3626 229.489 88.3626 228.247C88.3626 227.004 87.6622 225.997 86.7981 225.997C85.9341 225.997 85.2336 227.004 85.2336 228.247C85.2336 229.489 85.9341 230.496 86.7981 230.496Z" fill="#FBBF24"/>
<path d="M86.7981 249.558C87.6622 249.558 88.3626 248.551 88.3626 247.309C88.3626 246.066 87.6622 245.059 86.7981 245.059C85.9341 245.059 85.2336 246.066 85.2336 247.309C85.2336 248.551 85.9341 249.558 86.7981 249.558Z" fill="#FBBF24"/>
<path d="M92.5388 235.262C93.4028 235.262 94.1033 234.254 94.1033 233.012C94.1033 231.77 93.4028 230.763 92.5388 230.763C91.6747 230.763 90.9743 231.77 90.9743 233.012C90.9743 234.254 91.6747 235.262 92.5388 235.262Z" fill="#FBBF24"/>
<path d="M81.0572 244.793C81.9212 244.793 82.6217 243.785 82.6217 242.543C82.6217 241.301 81.9212 240.294 81.0572 240.294C80.1931 240.294 79.4927 241.301 79.4927 242.543C79.4927 243.785 80.1931 244.793 81.0572 244.793Z" fill="#FBBF24"/>
<path d="M81.0572 235.262C81.9212 235.262 82.6217 234.255 82.6217 233.012C82.6217 231.77 81.9212 230.763 81.0572 230.763C80.1931 230.763 79.4927 231.77 79.4927 233.012C79.4927 234.255 80.1931 235.262 81.0572 235.262Z" fill="#FBBF24"/>
<path d="M92.5388 244.793C93.4028 244.793 94.1033 243.785 94.1033 242.543C94.1033 241.301 93.4028 240.294 92.5388 240.294C91.6747 240.294 90.9743 241.301 90.9743 242.543C90.9743 243.785 91.6747 244.793 92.5388 244.793Z" fill="#FBBF24"/>
<g filter="url(#filter12_di_0_5)">
<path d="M41.8586 35.5248C42.1807 34.6541 43.4121 34.6541 43.7343 35.5248L44.9348 38.7691C45.0361 39.0429 45.2519 39.2587 45.5256 39.36L48.77 40.5605C49.6406 40.8826 49.6406 42.114 48.77 42.4362L45.5256 43.6367C45.2519 43.738 45.0361 43.9538 44.9348 44.2275L43.7343 47.4719C43.4121 48.3425 42.1807 48.3425 41.8586 47.4719L40.658 44.2275C40.5567 43.9538 40.3409 43.738 40.0672 43.6367L36.8228 42.4362C35.9522 42.114 35.9522 40.8826 36.8228 40.5605L40.0672 39.36C40.3409 39.2587 40.5567 39.0429 40.658 38.7691L41.8586 35.5248Z" fill="#FFCE34" fill-opacity="0.65" shape-rendering="crispEdges"/>
</g>
<g filter="url(#filter13_di_0_5)">
<path d="M112.862 14.1802C113.62 13.6435 114.636 14.3387 114.41 15.2392L113.632 18.3464C113.561 18.6295 113.617 18.9295 113.786 19.1676L115.638 21.7813C116.175 22.5388 115.479 23.5551 114.579 23.3295L111.472 22.5509C111.189 22.48 110.889 22.5363 110.65 22.705L108.037 24.557C107.279 25.0938 106.263 24.3985 106.489 23.4981L107.267 20.3908C107.338 20.1077 107.282 19.8077 107.113 19.5696L105.261 16.9559C104.724 16.1984 105.42 15.1821 106.32 15.4077L109.427 16.1863C109.71 16.2572 110.01 16.2009 110.249 16.0322L112.862 14.1802Z" fill="#FFCE34" fill-opacity="0.65" shape-rendering="crispEdges"/>
</g>
<defs>
<filter id="filter0_bi_0_5" x="62.5565" y="207.798" width="54.069" height="59.3047" filterUnits="userSpaceOnUse" color-interpolation-filters="sRGB">
<feFlood flood-opacity="0" result="BackgroundImageFix"/>
<feGaussianBlur in="BackgroundImage" stdDeviation="5.5"/>
<feComposite in2="SourceAlpha" operator="in" result="effect1_backgroundBlur_0_5"/>
<feBlend mode="normal" in="SourceGraphic" in2="effect1_backgroundBlur_0_5" result="shape"/>
<feColorMatrix in="SourceAlpha" type="matrix" values="0 0 0 0 0 0 0 0 0 0 0 0 0 0 0 0 0 0 127 0" result="hardAlpha"/>
<feOffset/>
<feGaussianBlur stdDeviation="6.5"/>
<feComposite in2="hardAlpha" operator="arithmetic" k2="-1" k3="1"/>
<feColorMatrix type="matrix" values="0 0 0 0 0.345382 0 0 0 0 0.393225 0 0 0 0 0.408333 0 0 0 0.75 0"/>
<feBlend mode="normal" in2="shape" result="effect2_innerShadow_0_5"/>
</filter>
<filter id="filter1_i_0_5" x="17.2724" y="91.8315" width="144.637" height="99.479" filterUnits="userSpaceOnUse" color-interpolation-filters="sRGB">
<feFlood flood-opacity="0" result="BackgroundImageFix"/>
<feBlend mode="normal" in="SourceGraphic" in2="BackgroundImageFix" result="shape"/>
<feColorMatrix in="SourceAlpha" type="matrix" values="0 0 0 0 0 0 0 0 0 0 0 0 0 0 0 0 0 0 127 0" result="hardAlpha"/>
<feOffset/>
<feGaussianBlur stdDeviation="6.5"/>
<feComposite in2="hardAlpha" operator="arithmetic" k2="-1" k3="1"/>
<feColorMatrix type="matrix" values="0 0 0 0 0.408333 0 0 0 0 0.395743 0 0 0 0 0.345382 0 0 0 1 0"/>
<feBlend mode="normal" in2="shape" result="effect1_innerShadow_0_5"/>
</filter>
<filter id="filter2_i_0_5" x="47.6065" y="80.2797" width="40.5875" height="40.5875" filterUnits="userSpaceOnUse" color-interpolation-filters="sRGB">
<feFlood flood-opacity="0" result="BackgroundImageFix"/>
<feBlend mode="normal" in="SourceGraphic" in2="BackgroundImageFix" result="shape"/>
<feColorMatrix in="SourceAlpha" type="matrix" values="0 0 0 0 0 0 0 0 0 0 0 0 0 0 0 0 0 0 127 0" result="hardAlpha"/>
<feOffset/>
<feGaussianBlur stdDeviation="6.5"/>
<feComposite in2="hardAlpha" operator="arithmetic" k2="-1" k3="1"/>
<feColorMatrix type="matrix" values="0 0 0 0 0.408333 0 0 0 0 0.395743 0 0 0 0 0.345382 0 0 0 1 0"/>
<feBlend mode="normal" in2="shape" result="effect1_innerShadow_0_5"/>
</filter>
<filter id="filter3_i_0_5" x="98.0297" y="40.0233" width="32.1077" height="32.1077" filterUnits="userSpaceOnUse" color-interpolation-filters="sRGB">
<feFlood flood-opacity="0" result="BackgroundImageFix"/>
<feBlend mode="normal" in="SourceGraphic" in2="BackgroundImageFix" result="shape"/>
<feColorMatrix in="SourceAlpha" type="matrix" values="0 0 0 0 0 0 0 0 0 0 0 0 0 0 0 0 0 0 127 0" result="hardAlpha"/>
<feOffset/>
<feGaussianBlur stdDeviation="6.5"/>
<feComposite in2="hardAlpha" operator="arithmetic" k2="-1" k3="1"/>
<feColorMatrix type="matrix" values="0 0 0 0 0.408333 0 0 0 0 0.395743 0 0 0 0 0.345382 0 0 0 1 0"/>
<feBlend mode="normal" in2="shape" result="effect1_innerShadow_0_5"/>
</filter>
<filter id="filter4_i_0_5" x="106.2" y="76.6989" width="32.1077" height="32.1077" filterUnits="userSpaceOnUse" color-interpolation-filters="sRGB">
<feFlood flood-opacity="0" result="BackgroundImageFix"/>
<feBlend mode="normal" in="SourceGraphic" in2="BackgroundImageFix" result="shape"/>
<feColorMatrix in="SourceAlpha" type="matrix" values="0 0 0 0 0 0 0 0 0 0 0 0 0 0 0 0 0 0 127 0" result="hardAlpha"/>
<feOffset/>
<feGaussianBlur stdDeviation="6.5"/>
<feComposite in2="hardAlpha" operator="arithmetic" k2="-1" k3="1"/>
<feColorMatrix type="matrix" values="0 0 0 0 0.408333 0 0 0 0 0.395743 0 0 0 0 0.345382 0 0 0 1 0"/>
<feBlend mode="normal" in2="shape" result="effect1_innerShadow_0_5"/>
</filter>
<filter id="filter5_bi_0_5" x="6.33774" y="87.5067" width="166.56" height="114.804" filterUnits="userSpaceOnUse" color-interpolation-filters="sRGB">
<feFlood flood-opacity="0" result="BackgroundImageFix"/>
<feGaussianBlur in="BackgroundImage" stdDeviation="5.5"/>
<feComposite in2="SourceAlpha" operator="in" result="effect1_backgroundBlur_0_5"/>
<feBlend mode="normal" in="SourceGraphic" in2="effect1_backgroundBlur_0_5" result="shape"/>
<feColorMatrix in="SourceAlpha" type="matrix" values="0 0 0 0 0 0 0 0 0 0 0 0 0 0 0 0 0 0 127 0" result="hardAlpha"/>
<feOffset/>
<feGaussianBlur stdDeviation="6.5"/>
<feComposite in2="hardAlpha" operator="arithmetic" k2="-1" k3="1"/>
<feColorMatrix type="matrix" values="0 0 0 0 0.408333 0 0 0 0 0.395743 0 0 0 0 0.345382 0 0 0 0.75 0"/>
<feBlend mode="normal" in2="shape" result="effect2_innerShadow_0_5"/>
</filter>
<filter id="filter6_di_0_5" x="44.0485" y="36.7991" width="48.5447" height="48.5447" filterUnits="userSpaceOnUse" color-interpolation-filters="sRGB">
<feFlood flood-opacity="0" result="BackgroundImageFix"/>
<feColorMatrix in="SourceAlpha" type="matrix" values="0 0 0 0 0 0 0 0 0 0 0 0 0 0 0 0 0 0 127 0" result="hardAlpha"/>
<feOffset/>
<feGaussianBlur stdDeviation="10.5"/>
<feComposite in2="hardAlpha" operator="out"/>
<feColorMatrix type="matrix" values="0 0 0 0 0.984314 0 0 0 0 0.74902 0 0 0 0 0.141176 0 0 0 1 0"/>
<feBlend mode="normal" in2="BackgroundImageFix" result="effect1_dropShadow_0_5"/>
<feBlend mode="normal" in="SourceGraphic" in2="effect1_dropShadow_0_5" result="shape"/>
<feColorMatrix in="SourceAlpha" type="matrix" values="0 0 0 0 0 0 0 0 0 0 0 0 0 0 0 0 0 0 127 0" result="hardAlpha"/>
<feOffset/>
<feGaussianBlur stdDeviation="6.5"/>
<feComposite in2="hardAlpha" operator="arithmetic" k2="-1" k3="1"/>
<feColorMatrix type="matrix" values="0 0 0 0 0.980392 0 0 0 0 0.745098 0 0 0 0 0.141176 0 0 0 0.58 0"/>
<feBlend mode="normal" in2="shape" result="effect2_innerShadow_0_5"/>
</filter>
<filter id="filter7_di_0_5" x="-7" y="46.677" width="48.5447" height="48.5447" filterUnits="userSpaceOnUse" color-interpolation-filters="sRGB">
<feFlood flood-opacity="0" result="BackgroundImageFix"/>
<feColorMatrix in="SourceAlpha" type="matrix" values="0 0 0 0 0 0 0 0 0 0 0 0 0 0 0 0 0 0 127 0" result="hardAlpha"/>
<feOffset/>
<feGaussianBlur stdDeviation="10.5"/>
<feComposite in2="hardAlpha" operator="out"/>
<feColorMatrix type="matrix" values="0 0 0 0 0.984314 0 0 0 0 0.74902 0 0 0 0 0.141176 0 0 0 1 0"/>
<feBlend mode="normal" in2="BackgroundImageFix" result="effect1_dropShadow_0_5"/>
<feBlend mode="normal" in="SourceGraphic" in2="effect1_dropShadow_0_5" result="shape"/>
<feColorMatrix in="SourceAlpha" type="matrix" values="0 0 0 0 0 0 0 0 0 0 0 0 0 0 0 0 0 0 127 0" result="hardAlpha"/>
<feOffset/>
<feGaussianBlur stdDeviation="6.5"/>
<feComposite in2="hardAlpha" operator="arithmetic" k2="-1" k3="1"/>
<feColorMatrix type="matrix" values="0 0 0 0 0.980392 0 0 0 0 0.745098 0 0 0 0 0.141176 0 0 0 0.58 0"/>
<feBlend mode="normal" in2="shape" result="effect2_innerShadow_0_5"/>
</filter>
<filter id="filter8_di_0_5" x="47.3208" y="0.14896" width="48.5447" height="48.5447" filterUnits="userSpaceOnUse" color-interpolation-filters="sRGB">
<feFlood flood-opacity="0" result="BackgroundImageFix"/>
<feColorMatrix in="SourceAlpha" type="matrix" values="0 0 0 0 0 0 0 0 0 0 0 0 0 0 0 0 0 0 127 0" result="hardAlpha"/>
<feOffset/>
<feGaussianBlur stdDeviation="10.5"/>
<feComposite in2="hardAlpha" operator="out"/>
<feColorMatrix type="matrix" values="0 0 0 0 0.984314 0 0 0 0 0.74902 0 0 0 0 0.141176 0 0 0 1 0"/>
<feBlend mode="normal" in2="BackgroundImageFix" result="effect1_dropShadow_0_5"/>
<feBlend mode="normal" in="SourceGraphic" in2="effect1_dropShadow_0_5" result="shape"/>
<feColorMatrix in="SourceAlpha" type="matrix" values="0 0 0 0 0 0 0 0 0 0 0 0 0 0 0 0 0 0 127 0" result="hardAlpha"/>
<feOffset/>
<feGaussianBlur stdDeviation="6.5"/>
<feComposite in2="hardAlpha" operator="arithmetic" k2="-1" k3="1"/>
<feColorMatrix type="matrix" values="0 0 0 0 0.980392 0 0 0 0 0.745098 0 0 0 0 0.141176 0 0 0 0.58 0"/>
<feBlend mode="normal" in2="shape" result="effect2_innerShadow_0_5"/>
</filter>
<filter id="filter9_di_0_5" x="133.711" y="29.6" width="51.817" height="51.817" filterUnits="userSpaceOnUse" color-interpolation-filters="sRGB">
<feFlood flood-opacity="0" result="BackgroundImageFix"/>
<feColorMatrix in="SourceAlpha" type="matrix" values="0 0 0 0 0 0 0 0 0 0 0 0 0 0 0 0 0 0 127 0" result="hardAlpha"/>
<feOffset/>
<feGaussianBlur stdDeviation="10.5"/>
<feComposite in2="hardAlpha" operator="out"/>
<feColorMatrix type="matrix" values="0 0 0 0 0.984314 0 0 0 0 0.74902 0 0 0 0 0.141176 0 0 0 1 0"/>
<feBlend mode="normal" in2="BackgroundImageFix" result="effect1_dropShadow_0_5"/>
<feBlend mode="normal" in="SourceGraphic" in2="effect1_dropShadow_0_5" result="shape"/>
<feColorMatrix in="SourceAlpha" type="matrix" values="0 0 0 0 0 0 0 0 0 0 0 0 0 0 0 0 0 0 127 0" result="hardAlpha"/>
<feOffset/>
<feGaussianBlur stdDeviation="6.5"/>
<feComposite in2="hardAlpha" operator="arithmetic" k2="-1" k3="1"/>
<feColorMatrix type="matrix" values="0 0 0 0 0.980392 0 0 0 0 0.745098 0 0 0 0 0.141176 0 0 0 0.58 0"/>
<feBlend mode="normal" in2="shape" result="effect2_innerShadow_0_5"/>
</filter>
<filter id="filter10_i_0_5" x="84.0281" y="199.819" width="11.126" height="11.126" filterUnits="userSpaceOnUse" color-interpolation-filters="sRGB">
<feFlood flood-opacity="0" result="BackgroundImageFix"/>
<feBlend mode="normal" in="SourceGraphic" in2="BackgroundImageFix" result="shape"/>
<feColorMatrix in="SourceAlpha" type="matrix" values="0 0 0 0 0 0 0 0 0 0 0 0 0 0 0 0 0 0 127 0" result="hardAlpha"/>
<feOffset/>
<feGaussianBlur stdDeviation="6.5"/>
<feComposite in2="hardAlpha" operator="arithmetic" k2="-1" k3="1"/>
<feColorMatrix type="matrix" values="0 0 0 0 0.408333 0 0 0 0 0.395743 0 0 0 0 0.345382 0 0 0 1 0"/>
<feBlend mode="normal" in2="shape" result="effect1_innerShadow_0_5"/>
</filter>
<filter id="filter11_i_0_5" x="73.5565" y="218.798" width="26.8332" height="37.3047" filterUnits="userSpaceOnUse" color-interpolation-filters="sRGB">
<feFlood flood-opacity="0" result="BackgroundImageFix"/>
<feBlend mode="normal" in="SourceGraphic" in2="BackgroundImageFix" result="shape"/>
<feColorMatrix in="SourceAlpha" type="matrix" values="0 0 0 0 0 0 0 0 0 0 0 0 0 0 0 0 0 0 127 0" result="hardAlpha"/>
<feOffset/>
<feGaussianBlur stdDeviation="6.5"/>
<feComposite in2="hardAlpha" operator="arithmetic" k2="-1" k3="1"/>
<feColorMatrix type="matrix" values="0 0 0 0 0.345382 0 0 0 0 0.378117 0 0 0 0 0.408333 0 0 0 1 0"/>
<feBlend mode="normal" in2="shape" result="effect1_innerShadow_0_5"/>
</filter>
<filter id="filter12_di_0_5" x="15.1699" y="13.8718" width="55.2531" height="55.2531" filterUnits="userSpaceOnUse" color-interpolation-filters="sRGB">
<feFlood flood-opacity="0" result="BackgroundImageFix"/>
<feColorMatrix in="SourceAlpha" type="matrix" values="0 0 0 0 0 0 0 0 0 0 0 0 0 0 0 0 0 0 127 0" result="hardAlpha"/>
<feOffset/>
<feGaussianBlur stdDeviation="10.5"/>
<feComposite in2="hardAlpha" operator="out"/>
<feColorMatrix type="matrix" values="0 0 0 0 0.984314 0 0 0 0 0.74902 0 0 0 0 0.141176 0 0 0 1 0"/>
<feBlend mode="normal" in2="BackgroundImageFix" result="effect1_dropShadow_0_5"/>
<feBlend mode="normal" in="SourceGraphic" in2="effect1_dropShadow_0_5" result="shape"/>
<feColorMatrix in="SourceAlpha" type="matrix" values="0 0 0 0 0 0 0 0 0 0 0 0 0 0 0 0 0 0 127 0" result="hardAlpha"/>
<feOffset/>
<feGaussianBlur stdDeviation="6.5"/>
<feComposite in2="hardAlpha" operator="arithmetic" k2="-1" k3="1"/>
<feColorMatrix type="matrix" values="0 0 0 0 0.980392 0 0 0 0 0.745098 0 0 0 0 0.141176 0 0 0 0.58 0"/>
<feBlend mode="normal" in2="shape" result="effect2_innerShadow_0_5"/>
</filter>
<filter id="filter13_di_0_5" x="84.0733" y="-7.00758" width="52.7524" height="52.7524" filterUnits="userSpaceOnUse" color-interpolation-filters="sRGB">
<feFlood flood-opacity="0" result="BackgroundImageFix"/>
<feColorMatrix in="SourceAlpha" type="matrix" values="0 0 0 0 0 0 0 0 0 0 0 0 0 0 0 0 0 0 127 0" result="hardAlpha"/>
<feOffset/>
<feGaussianBlur stdDeviation="10.5"/>
<feComposite in2="hardAlpha" operator="out"/>
<feColorMatrix type="matrix" values="0 0 0 0 0.984314 0 0 0 0 0.74902 0 0 0 0 0.141176 0 0 0 1 0"/>
<feBlend mode="normal" in2="BackgroundImageFix" result="effect1_dropShadow_0_5"/>
<feBlend mode="normal" in="SourceGraphic" in2="effect1_dropShadow_0_5" result="shape"/>
<feColorMatrix in="SourceAlpha" type="matrix" values="0 0 0 0 0 0 0 0 0 0 0 0 0 0 0 0 0 0 127 0" result="hardAlpha"/>
<feOffset/>
<feGaussianBlur stdDeviation="6.5"/>
<feComposite in2="hardAlpha" operator="arithmetic" k2="-1" k3="1"/>
<feColorMatrix type="matrix" values="0 0 0 0 0.980392 0 0 0 0 0.745098 0 0 0 0 0.141176 0 0 0 0.58 0"/>
<feBlend mode="normal" in2="shape" result="effect2_innerShadow_0_5"/>
</filter>
<linearGradient id="paint0_linear_0_5" x1="81.9994" y1="225.717" x2="108.532" y2="236.85" gradientUnits="userSpaceOnUse">
<stop stop-color="#717D8F" stop-opacity="0.65"/>
<stop offset="1" stop-color="#4A5056" stop-opacity="0"/>
</linearGradient>
<linearGradient id="paint1_linear_0_5" x1="34.6158" y1="115.72" x2="116.752" y2="191.311" gradientUnits="userSpaceOnUse">
<stop stop-color="#ECF0FE" stop-opacity="0.65"/>
<stop offset="1" stop-color="#4F4A56" stop-opacity="0"/>
</linearGradient>
<linearGradient id="paint2_linear_0_5" x1="73.5565" y1="218.798" x2="86.9731" y2="256.103" gradientUnits="userSpaceOnUse">
<stop stop-color="#3E4247"/>
<stop offset="1" stop-color="#3E4147" stop-opacity="0.81"/>
</linearGradient>
<clipPath id="clip0_0_5">
<rect width="19.477" height="19.477" fill="white" transform="translate(55.8505 93.9043) rotate(-16.0372)"/>
</clipPath>
<clipPath id="clip1_0_5">
<rect width="15.7072" height="15.7072" fill="white" transform="translate(103.575 49.4998) rotate(-18.0886)"/>
</clipPath>
<clipPath id="clip2_0_5">
<rect width="15.7072" height="15.7072" fill="white" transform="translate(114.134 84.6321)"/>
</clipPath>
</defs>
</svg>
