<svg width="182" height="247" viewBox="0 0 182 247" fill="none" xmlns="http://www.w3.org/2000/svg">
<path fill-rule="evenodd" clip-rule="evenodd" d="M88.8843 246.751H93.7393H94.0437V246.746C100.795 246.521 106.218 238.843 106.218 229.403C106.218 219.964 100.795 212.285 94.0437 212.06V212.055H93.7393H87.9567V212.101C81.4915 212.751 76.3916 220.249 76.3916 229.403C76.3916 238.557 81.4915 246.055 87.9567 246.705V246.751H88.8554C88.8602 246.751 88.865 246.751 88.8699 246.751C88.8747 246.751 88.8795 246.751 88.8843 246.751Z" fill="url(#paint0_linear_44_87)"/>
<g opacity="0.55" filter="url(#filter0_i_44_87)">
<path d="M24.308 100.207C39.5657 93.9685 60.96 93.9685 91.1946 93.9685C121.703 93.9685 141.218 93.9685 158.566 100.055C158.566 100.055 158.463 100.29 158.285 100.51C148.604 112.503 133.494 131.975 121.513 147.414L121.512 147.415C113.192 158.137 106.38 166.915 103.945 169.891C97.9692 177.195 94.8154 184 93.9855 186.49H88.6734C87.8435 184 84.6898 177.195 78.7142 169.891C76.2785 166.914 69.4669 158.137 61.1462 147.414L61.1456 147.413C49.0968 131.887 33.8836 112.282 24.2094 100.307C24.1539 100.29 24.0988 100.274 24.0439 100.258C24.0801 100.251 24.1166 100.244 24.1533 100.237C24.1371 100.217 24.1209 100.197 24.1047 100.177C24.1722 100.187 24.24 100.197 24.308 100.207Z" fill="#D3D3D3"/>
</g>
<g filter="url(#filter1_i_44_87)">
<circle cx="71.1309" cy="102.099" r="18.8696" transform="rotate(-16.0372 71.1309 102.099)" fill="black"/>
</g>
<g clip-path="url(#clip0_44_87)">
<path d="M78.2843 94.1977C77.7255 94.6661 77.0922 95.0555 76.3945 95.3495C77.0052 94.6957 77.3706 93.8328 77.397 92.9221C76.8247 93.5295 76.1456 94.0467 75.3778 94.441C74.5276 93.9338 73.4736 93.7671 72.4464 94.0624C70.1404 94.7253 69.0643 97.3639 70.2272 99.4477C67.2168 100.152 64.1763 99.4868 61.7931 97.8323C61.3188 99.7066 62.3729 101.677 64.2687 102.284C63.6786 102.433 63.0812 102.431 62.5233 102.301C62.9598 103.967 64.5908 105.174 66.4076 105.025C65.9441 105.306 65.4027 105.496 64.8118 105.55C65.6738 106.838 67.2893 107.491 68.8616 107.071C67.6984 108.68 65.9577 109.75 63.9987 110.071C65.8707 110.63 67.9187 110.681 69.9354 110.102C76.567 108.195 78.7038 101.517 77.0335 96.559C77.5864 95.8543 78.0114 95.0513 78.2843 94.1977Z" fill="#FBBF24"/>
</g>
<g filter="url(#filter2_i_44_87)">
<circle cx="114.084" cy="60.7148" r="14.9284" transform="rotate(29.4095 114.084 60.7148)" fill="black"/>
</g>
<g clip-path="url(#clip1_44_87)">
<path d="M107.853 55.6814C108.114 56.4804 107.684 57.3377 106.891 57.5966C106.098 57.8555 105.245 57.4178 104.984 56.6188C104.723 55.8203 105.153 54.9625 105.946 54.7035C106.739 54.4446 107.593 54.8829 107.853 55.6814ZM108.716 58.2813L105.822 59.2263L108.846 68.4841L111.739 67.5391L108.716 58.2813ZM113.334 56.7728L110.459 57.7117L113.483 66.9695L116.358 66.0304L114.771 61.1707C113.889 58.4685 117.305 57.1081 118.26 60.0312L119.847 64.891L122.733 63.9483L120.818 58.0864C119.329 53.5269 114.221 55.3792 113.741 58.0197L113.334 56.7728Z" fill="#FBBF24"/>
</g>
<g filter="url(#filter3_i_44_87)">
<circle cx="121.683" cy="94.8252" r="14.9284" transform="rotate(29.4095 121.683 94.8252)" fill="black"/>
</g>
<g clip-path="url(#clip2_44_87)">
<path d="M119.61 92.1421H117.784V94.5769H119.61V101.881H122.653V94.5769H124.87L125.088 92.1421H122.653V91.1275C122.653 90.5461 122.77 90.3161 123.332 90.3161H125.088V87.2726H122.77C120.581 87.2726 119.61 88.2361 119.61 90.0817V92.1421Z" fill="#FBBF24"/>
</g>
<g filter="url(#filter4_bi_44_87)">
<path d="M61.1465 147.414C69.4673 158.137 76.2788 166.914 78.7145 169.891C84.6901 177.195 87.8438 184 88.6738 186.49H93.9858C94.8157 184 97.9695 177.195 103.945 169.891C106.381 166.914 113.192 158.137 121.513 147.414C133.605 131.831 148.886 112.14 158.555 100.177C150.957 103.707 117.175 105.582 96.1747 105.534C94.4439 105.53 92.5494 105.534 91.0008 105.534C70.9138 105.534 27.3921 104.27 24.105 100.177C33.7739 112.14 49.054 131.831 61.1465 147.414Z" fill="url(#paint1_linear_44_87)"/>
</g>
<g filter="url(#filter5_di_44_87)">
<circle cx="71.5215" cy="65.3598" r="3.04348" fill="#FFCE34" fill-opacity="0.65" shape-rendering="crispEdges"/>
</g>
<g filter="url(#filter6_di_44_87)">
<circle cx="24.0435" cy="74.5468" r="3.04348" fill="#FFCE34" fill-opacity="0.65" shape-rendering="crispEdges"/>
</g>
<g filter="url(#filter7_di_44_87)">
<circle cx="74.565" cy="31.2728" r="3.04348" fill="#FFCE34" fill-opacity="0.65" shape-rendering="crispEdges"/>
</g>
<g filter="url(#filter8_di_44_87)">
<circle cx="156.435" cy="60.1858" r="4.56522" fill="#FFCE34" fill-opacity="0.65" shape-rendering="crispEdges"/>
</g>
<circle cx="91.3048" cy="199.577" r="5.17391" fill="black"/>
<g filter="url(#filter9_i_44_87)">
<ellipse cx="88.8699" cy="229.403" rx="12.4783" ry="17.3478" fill="black"/>
</g>
<path fill-rule="evenodd" clip-rule="evenodd" d="M84.6402 229.699C84.6433 228.913 84.6747 228.111 84.7405 227.568C84.8015 227.065 84.9747 227.096 85.1044 227.206L86.4174 228.444C86.7183 228.765 86.8583 229.231 86.8571 229.689V229.725C86.8583 230.184 86.7183 230.65 86.4174 230.971L85.1044 232.209C84.9747 232.319 84.8015 232.35 84.7405 231.847C84.6747 231.304 84.6433 230.501 84.6402 229.716C84.6402 229.713 84.6401 229.711 84.6402 229.708V229.707V229.707C84.6401 229.704 84.6402 229.702 84.6402 229.699Z" fill="#8362EE"/>
<path fill-rule="evenodd" clip-rule="evenodd" d="M92.7639 229.699C92.7607 228.913 92.7293 228.111 92.6635 227.568C92.6025 227.065 92.4293 227.096 92.2996 227.206L90.9866 228.444C90.6857 228.765 90.5458 229.231 90.5469 229.689V229.725C90.5458 230.184 90.6857 230.65 90.9866 230.971L92.2996 232.209C92.4293 232.319 92.6025 232.35 92.6635 231.847C92.7293 231.304 92.7607 230.501 92.7639 229.716C92.7639 229.713 92.7639 229.711 92.7639 229.708V229.707V229.707C92.7639 229.704 92.7639 229.702 92.7639 229.699Z" fill="#8362EE"/>
<path fill-rule="evenodd" clip-rule="evenodd" d="M86.6759 224.645C87.1505 224.256 87.6496 223.894 88.0096 223.705C88.3432 223.529 88.411 223.76 88.4097 223.977L88.3206 226.231C88.2775 226.766 88.0667 227.173 87.7902 227.401L87.7683 227.419C87.493 227.65 87.1421 227.708 86.7981 227.494L85.3961 226.478C85.265 226.372 85.1597 226.172 85.4322 225.844C85.7265 225.491 86.1941 225.05 86.6656 224.654C86.6672 224.652 86.6688 224.651 86.6703 224.65L86.6707 224.649L86.6712 224.649C86.6727 224.648 86.6742 224.647 86.6759 224.645Z" fill="#8362EE"/>
<path fill-rule="evenodd" clip-rule="evenodd" d="M90.7377 234.761C91.2093 234.364 91.6769 233.924 91.9711 233.57C92.2437 233.243 92.1383 233.043 92.0073 232.936L90.6053 231.92C90.2612 231.706 89.9104 231.765 89.635 231.995L89.6132 232.014C89.3367 232.241 89.1259 232.649 89.0828 233.184L88.9937 235.438C88.9924 235.654 89.0602 235.885 89.3937 235.71C89.7538 235.52 90.2528 235.158 90.7275 234.769C90.7291 234.768 90.7307 234.767 90.7322 234.765L90.7326 234.765L90.7331 234.765C90.7346 234.763 90.7362 234.762 90.7377 234.761Z" fill="#8362EE"/>
<path fill-rule="evenodd" clip-rule="evenodd" d="M90.7275 224.645C90.2528 224.256 89.7538 223.894 89.3937 223.705C89.0602 223.529 88.9924 223.76 88.9937 223.977L89.0828 226.231C89.1259 226.766 89.3367 227.173 89.6132 227.401L89.635 227.419C89.9104 227.65 90.2612 227.708 90.6053 227.494L92.0073 226.478C92.1383 226.372 92.2437 226.172 91.9711 225.844C91.6769 225.491 91.2093 225.05 90.7377 224.654C90.7362 224.652 90.7346 224.651 90.7331 224.65L90.7326 224.649L90.7322 224.649C90.7307 224.648 90.7291 224.647 90.7275 224.645Z" fill="#8362EE"/>
<path fill-rule="evenodd" clip-rule="evenodd" d="M86.6656 234.761C86.1941 234.364 85.7265 233.924 85.4322 233.57C85.1597 233.243 85.265 233.043 85.3961 232.936L86.7981 231.92C87.1421 231.706 87.493 231.765 87.7683 231.995L87.7902 232.014C88.0667 232.241 88.2775 232.649 88.3206 233.184L88.4097 235.438C88.411 235.654 88.3432 235.885 88.0096 235.71C87.6496 235.52 87.1505 235.158 86.6759 234.769C86.6742 234.768 86.6727 234.767 86.6712 234.765L86.6707 234.765L86.6703 234.765C86.6688 234.763 86.6672 234.762 86.6656 234.761Z" fill="#8362EE"/>
<path d="M88.707 222.935C89.5106 222.935 90.1621 221.999 90.1621 220.843C90.1621 219.688 89.5106 218.751 88.707 218.751C87.9034 218.751 87.252 219.688 87.252 220.843C87.252 221.999 87.9034 222.935 88.707 222.935Z" fill="#FBBF24"/>
<path d="M88.707 240.664C89.5106 240.664 90.1621 239.727 90.1621 238.572C90.1621 237.417 89.5106 236.48 88.707 236.48C87.9034 236.48 87.252 237.417 87.252 238.572C87.252 239.727 87.9034 240.664 88.707 240.664Z" fill="#FBBF24"/>
<path d="M94.0459 227.367C94.8495 227.367 95.501 226.431 95.501 225.275C95.501 224.12 94.8495 223.183 94.0459 223.183C93.2423 223.183 92.5908 224.12 92.5908 225.275C92.5908 226.431 93.2423 227.367 94.0459 227.367Z" fill="#FBBF24"/>
<path d="M83.3677 236.232C84.1713 236.232 84.8228 235.295 84.8228 234.14C84.8228 232.984 84.1713 232.047 83.3677 232.047C82.5641 232.047 81.9126 232.984 81.9126 234.14C81.9126 235.295 82.5641 236.232 83.3677 236.232Z" fill="#FBBF24"/>
<path d="M83.3677 227.367C84.1713 227.367 84.8228 226.431 84.8228 225.275C84.8228 224.12 84.1713 223.183 83.3677 223.183C82.5641 223.183 81.9126 224.12 81.9126 225.275C81.9126 226.431 82.5641 227.367 83.3677 227.367Z" fill="#FBBF24"/>
<path d="M94.0459 236.232C94.8495 236.232 95.501 235.295 95.501 234.14C95.501 232.984 94.8495 232.047 94.0459 232.047C93.2423 232.047 92.5908 232.984 92.5908 234.14C92.5908 235.295 93.2423 236.232 94.0459 236.232Z" fill="#FBBF24"/>
<g filter="url(#filter10_di_44_87)">
<path d="M46.8443 41.7769C47.1665 40.9063 48.3979 40.9063 48.72 41.7769L49.7598 44.587C49.8611 44.8607 50.0769 45.0765 50.3507 45.1778L53.1607 46.2176C54.0313 46.5398 54.0313 47.7712 53.1607 48.0933L50.3507 49.1331C50.0769 49.2344 49.8611 49.4502 49.7598 49.724L48.72 52.534C48.3979 53.4046 47.1665 53.4046 46.8443 52.534L45.8045 49.724C45.7032 49.4502 45.4874 49.2344 45.2137 49.1331L42.4036 48.0933C41.533 47.7712 41.533 46.5398 42.4036 46.2176L45.2137 45.1778C45.4874 45.0765 45.7032 44.8607 45.8045 44.587L46.8443 41.7769Z" fill="#FFCE34" fill-opacity="0.65" shape-rendering="crispEdges"/>
</g>
<g filter="url(#filter11_di_44_87)">
<path d="M112.794 21.8572C113.551 21.3205 114.568 22.0157 114.342 22.9162L113.672 25.5916C113.601 25.8747 113.657 26.1747 113.826 26.4128L115.42 28.6633C115.957 29.4207 115.262 30.4371 114.361 30.2115L111.686 29.5411C111.403 29.4701 111.103 29.5264 110.865 29.6952L108.614 31.2898C107.857 31.8265 106.841 31.1313 107.066 30.2308L107.737 27.5554C107.808 27.2723 107.751 26.9723 107.583 26.7342L105.988 24.4837C105.451 23.7263 106.146 22.7099 107.047 22.9356L109.722 23.6059C110.005 23.6769 110.305 23.6206 110.543 23.4519L112.794 21.8572Z" fill="#FFCE34" fill-opacity="0.65" shape-rendering="crispEdges"/>
</g>
<defs>
<filter id="filter0_i_44_87" x="24.0439" y="93.9685" width="134.521" height="92.5217" filterUnits="userSpaceOnUse" color-interpolation-filters="sRGB">
<feFlood flood-opacity="0" result="BackgroundImageFix"/>
<feBlend mode="normal" in="SourceGraphic" in2="BackgroundImageFix" result="shape"/>
<feColorMatrix in="SourceAlpha" type="matrix" values="0 0 0 0 0 0 0 0 0 0 0 0 0 0 0 0 0 0 127 0" result="hardAlpha"/>
<feOffset/>
<feGaussianBlur stdDeviation="6.5"/>
<feComposite in2="hardAlpha" operator="arithmetic" k2="-1" k3="1"/>
<feColorMatrix type="matrix" values="0 0 0 0 0.495521 0 0 0 0 0.528183 0 0 0 0 0.558333 0 0 0 1 0"/>
<feBlend mode="normal" in2="shape" result="effect1_innerShadow_44_87"/>
</filter>
<filter id="filter1_i_44_87" x="52.2563" y="83.2246" width="37.749" height="37.7489" filterUnits="userSpaceOnUse" color-interpolation-filters="sRGB">
<feFlood flood-opacity="0" result="BackgroundImageFix"/>
<feBlend mode="normal" in="SourceGraphic" in2="BackgroundImageFix" result="shape"/>
<feColorMatrix in="SourceAlpha" type="matrix" values="0 0 0 0 0 0 0 0 0 0 0 0 0 0 0 0 0 0 127 0" result="hardAlpha"/>
<feOffset/>
<feGaussianBlur stdDeviation="6.5"/>
<feComposite in2="hardAlpha" operator="arithmetic" k2="-1" k3="1"/>
<feColorMatrix type="matrix" values="0 0 0 0 0.408333 0 0 0 0 0.395743 0 0 0 0 0.345382 0 0 0 1 0"/>
<feBlend mode="normal" in2="shape" result="effect1_innerShadow_44_87"/>
</filter>
<filter id="filter2_i_44_87" x="99.1533" y="45.7837" width="29.8618" height="29.8622" filterUnits="userSpaceOnUse" color-interpolation-filters="sRGB">
<feFlood flood-opacity="0" result="BackgroundImageFix"/>
<feBlend mode="normal" in="SourceGraphic" in2="BackgroundImageFix" result="shape"/>
<feColorMatrix in="SourceAlpha" type="matrix" values="0 0 0 0 0 0 0 0 0 0 0 0 0 0 0 0 0 0 127 0" result="hardAlpha"/>
<feOffset/>
<feGaussianBlur stdDeviation="6.5"/>
<feComposite in2="hardAlpha" operator="arithmetic" k2="-1" k3="1"/>
<feColorMatrix type="matrix" values="0 0 0 0 0.408333 0 0 0 0 0.395743 0 0 0 0 0.345382 0 0 0 1 0"/>
<feBlend mode="normal" in2="shape" result="effect1_innerShadow_44_87"/>
</filter>
<filter id="filter3_i_44_87" x="106.752" y="79.8942" width="29.8618" height="29.8622" filterUnits="userSpaceOnUse" color-interpolation-filters="sRGB">
<feFlood flood-opacity="0" result="BackgroundImageFix"/>
<feBlend mode="normal" in="SourceGraphic" in2="BackgroundImageFix" result="shape"/>
<feColorMatrix in="SourceAlpha" type="matrix" values="0 0 0 0 0 0 0 0 0 0 0 0 0 0 0 0 0 0 127 0" result="hardAlpha"/>
<feOffset/>
<feGaussianBlur stdDeviation="6.5"/>
<feComposite in2="hardAlpha" operator="arithmetic" k2="-1" k3="1"/>
<feColorMatrix type="matrix" values="0 0 0 0 0.408333 0 0 0 0 0.395743 0 0 0 0 0.345382 0 0 0 1 0"/>
<feBlend mode="normal" in2="shape" result="effect1_innerShadow_44_87"/>
</filter>
<filter id="filter4_bi_44_87" x="13.105" y="89.1769" width="156.45" height="108.313" filterUnits="userSpaceOnUse" color-interpolation-filters="sRGB">
<feFlood flood-opacity="0" result="BackgroundImageFix"/>
<feGaussianBlur in="BackgroundImage" stdDeviation="5.5"/>
<feComposite in2="SourceAlpha" operator="in" result="effect1_backgroundBlur_44_87"/>
<feBlend mode="normal" in="SourceGraphic" in2="effect1_backgroundBlur_44_87" result="shape"/>
<feColorMatrix in="SourceAlpha" type="matrix" values="0 0 0 0 0 0 0 0 0 0 0 0 0 0 0 0 0 0 127 0" result="hardAlpha"/>
<feOffset/>
<feGaussianBlur stdDeviation="6.5"/>
<feComposite in2="hardAlpha" operator="arithmetic" k2="-1" k3="1"/>
<feColorMatrix type="matrix" values="0 0 0 0 0.645208 0 0 0 0 0.660829 0 0 0 0 0.679167 0 0 0 0.75 0"/>
<feBlend mode="normal" in2="shape" result="effect2_innerShadow_44_87"/>
</filter>
<filter id="filter5_di_44_87" x="47.478" y="41.3163" width="48.0869" height="48.0869" filterUnits="userSpaceOnUse" color-interpolation-filters="sRGB">
<feFlood flood-opacity="0" result="BackgroundImageFix"/>
<feColorMatrix in="SourceAlpha" type="matrix" values="0 0 0 0 0 0 0 0 0 0 0 0 0 0 0 0 0 0 127 0" result="hardAlpha"/>
<feOffset/>
<feGaussianBlur stdDeviation="10.5"/>
<feComposite in2="hardAlpha" operator="out"/>
<feColorMatrix type="matrix" values="0 0 0 0 0.984314 0 0 0 0 0.74902 0 0 0 0 0.141176 0 0 0 1 0"/>
<feBlend mode="normal" in2="BackgroundImageFix" result="effect1_dropShadow_44_87"/>
<feBlend mode="normal" in="SourceGraphic" in2="effect1_dropShadow_44_87" result="shape"/>
<feColorMatrix in="SourceAlpha" type="matrix" values="0 0 0 0 0 0 0 0 0 0 0 0 0 0 0 0 0 0 127 0" result="hardAlpha"/>
<feOffset/>
<feGaussianBlur stdDeviation="6.5"/>
<feComposite in2="hardAlpha" operator="arithmetic" k2="-1" k3="1"/>
<feColorMatrix type="matrix" values="0 0 0 0 0.980392 0 0 0 0 0.745098 0 0 0 0 0.141176 0 0 0 0.58 0"/>
<feBlend mode="normal" in2="shape" result="effect2_innerShadow_44_87"/>
</filter>
<filter id="filter6_di_44_87" x="0" y="50.5033" width="48.0869" height="48.0869" filterUnits="userSpaceOnUse" color-interpolation-filters="sRGB">
<feFlood flood-opacity="0" result="BackgroundImageFix"/>
<feColorMatrix in="SourceAlpha" type="matrix" values="0 0 0 0 0 0 0 0 0 0 0 0 0 0 0 0 0 0 127 0" result="hardAlpha"/>
<feOffset/>
<feGaussianBlur stdDeviation="10.5"/>
<feComposite in2="hardAlpha" operator="out"/>
<feColorMatrix type="matrix" values="0 0 0 0 0.984314 0 0 0 0 0.74902 0 0 0 0 0.141176 0 0 0 1 0"/>
<feBlend mode="normal" in2="BackgroundImageFix" result="effect1_dropShadow_44_87"/>
<feBlend mode="normal" in="SourceGraphic" in2="effect1_dropShadow_44_87" result="shape"/>
<feColorMatrix in="SourceAlpha" type="matrix" values="0 0 0 0 0 0 0 0 0 0 0 0 0 0 0 0 0 0 127 0" result="hardAlpha"/>
<feOffset/>
<feGaussianBlur stdDeviation="6.5"/>
<feComposite in2="hardAlpha" operator="arithmetic" k2="-1" k3="1"/>
<feColorMatrix type="matrix" values="0 0 0 0 0.980392 0 0 0 0 0.745098 0 0 0 0 0.141176 0 0 0 0.58 0"/>
<feBlend mode="normal" in2="shape" result="effect2_innerShadow_44_87"/>
</filter>
<filter id="filter7_di_44_87" x="50.5215" y="7.22937" width="48.0869" height="48.0869" filterUnits="userSpaceOnUse" color-interpolation-filters="sRGB">
<feFlood flood-opacity="0" result="BackgroundImageFix"/>
<feColorMatrix in="SourceAlpha" type="matrix" values="0 0 0 0 0 0 0 0 0 0 0 0 0 0 0 0 0 0 127 0" result="hardAlpha"/>
<feOffset/>
<feGaussianBlur stdDeviation="10.5"/>
<feComposite in2="hardAlpha" operator="out"/>
<feColorMatrix type="matrix" values="0 0 0 0 0.984314 0 0 0 0 0.74902 0 0 0 0 0.141176 0 0 0 1 0"/>
<feBlend mode="normal" in2="BackgroundImageFix" result="effect1_dropShadow_44_87"/>
<feBlend mode="normal" in="SourceGraphic" in2="effect1_dropShadow_44_87" result="shape"/>
<feColorMatrix in="SourceAlpha" type="matrix" values="0 0 0 0 0 0 0 0 0 0 0 0 0 0 0 0 0 0 127 0" result="hardAlpha"/>
<feOffset/>
<feGaussianBlur stdDeviation="6.5"/>
<feComposite in2="hardAlpha" operator="arithmetic" k2="-1" k3="1"/>
<feColorMatrix type="matrix" values="0 0 0 0 0.980392 0 0 0 0 0.745098 0 0 0 0 0.141176 0 0 0 0.58 0"/>
<feBlend mode="normal" in2="shape" result="effect2_innerShadow_44_87"/>
</filter>
<filter id="filter8_di_44_87" x="130.87" y="34.6206" width="51.1304" height="51.1305" filterUnits="userSpaceOnUse" color-interpolation-filters="sRGB">
<feFlood flood-opacity="0" result="BackgroundImageFix"/>
<feColorMatrix in="SourceAlpha" type="matrix" values="0 0 0 0 0 0 0 0 0 0 0 0 0 0 0 0 0 0 127 0" result="hardAlpha"/>
<feOffset/>
<feGaussianBlur stdDeviation="10.5"/>
<feComposite in2="hardAlpha" operator="out"/>
<feColorMatrix type="matrix" values="0 0 0 0 0.984314 0 0 0 0 0.74902 0 0 0 0 0.141176 0 0 0 1 0"/>
<feBlend mode="normal" in2="BackgroundImageFix" result="effect1_dropShadow_44_87"/>
<feBlend mode="normal" in="SourceGraphic" in2="effect1_dropShadow_44_87" result="shape"/>
<feColorMatrix in="SourceAlpha" type="matrix" values="0 0 0 0 0 0 0 0 0 0 0 0 0 0 0 0 0 0 127 0" result="hardAlpha"/>
<feOffset/>
<feGaussianBlur stdDeviation="6.5"/>
<feComposite in2="hardAlpha" operator="arithmetic" k2="-1" k3="1"/>
<feColorMatrix type="matrix" values="0 0 0 0 0.980392 0 0 0 0 0.745098 0 0 0 0 0.141176 0 0 0 0.58 0"/>
<feBlend mode="normal" in2="shape" result="effect2_innerShadow_44_87"/>
</filter>
<filter id="filter9_i_44_87" x="76.3916" y="212.055" width="24.9565" height="34.6957" filterUnits="userSpaceOnUse" color-interpolation-filters="sRGB">
<feFlood flood-opacity="0" result="BackgroundImageFix"/>
<feBlend mode="normal" in="SourceGraphic" in2="BackgroundImageFix" result="shape"/>
<feColorMatrix in="SourceAlpha" type="matrix" values="0 0 0 0 0 0 0 0 0 0 0 0 0 0 0 0 0 0 127 0" result="hardAlpha"/>
<feOffset/>
<feGaussianBlur stdDeviation="6.5"/>
<feComposite in2="hardAlpha" operator="arithmetic" k2="-1" k3="1"/>
<feColorMatrix type="matrix" values="0 0 0 0 0.301961 0 0 0 0 0.305882 0 0 0 0 0.317647 0 0 0 1 0"/>
<feBlend mode="normal" in2="shape" result="effect1_innerShadow_44_87"/>
</filter>
<filter id="filter10_di_44_87" x="20.7505" y="20.124" width="54.063" height="54.063" filterUnits="userSpaceOnUse" color-interpolation-filters="sRGB">
<feFlood flood-opacity="0" result="BackgroundImageFix"/>
<feColorMatrix in="SourceAlpha" type="matrix" values="0 0 0 0 0 0 0 0 0 0 0 0 0 0 0 0 0 0 127 0" result="hardAlpha"/>
<feOffset/>
<feGaussianBlur stdDeviation="10.5"/>
<feComposite in2="hardAlpha" operator="out"/>
<feColorMatrix type="matrix" values="0 0 0 0 0.984314 0 0 0 0 0.74902 0 0 0 0 0.141176 0 0 0 1 0"/>
<feBlend mode="normal" in2="BackgroundImageFix" result="effect1_dropShadow_44_87"/>
<feBlend mode="normal" in="SourceGraphic" in2="effect1_dropShadow_44_87" result="shape"/>
<feColorMatrix in="SourceAlpha" type="matrix" values="0 0 0 0 0 0 0 0 0 0 0 0 0 0 0 0 0 0 127 0" result="hardAlpha"/>
<feOffset/>
<feGaussianBlur stdDeviation="6.5"/>
<feComposite in2="hardAlpha" operator="arithmetic" k2="-1" k3="1"/>
<feColorMatrix type="matrix" values="0 0 0 0 0.980392 0 0 0 0 0.745098 0 0 0 0 0.141176 0 0 0 0.58 0"/>
<feBlend mode="normal" in2="shape" result="effect2_innerShadow_44_87"/>
</filter>
<filter id="filter11_di_44_87" x="84.8003" y="0.669434" width="51.8081" height="51.8081" filterUnits="userSpaceOnUse" color-interpolation-filters="sRGB">
<feFlood flood-opacity="0" result="BackgroundImageFix"/>
<feColorMatrix in="SourceAlpha" type="matrix" values="0 0 0 0 0 0 0 0 0 0 0 0 0 0 0 0 0 0 127 0" result="hardAlpha"/>
<feOffset/>
<feGaussianBlur stdDeviation="10.5"/>
<feComposite in2="hardAlpha" operator="out"/>
<feColorMatrix type="matrix" values="0 0 0 0 0.984314 0 0 0 0 0.74902 0 0 0 0 0.141176 0 0 0 1 0"/>
<feBlend mode="normal" in2="BackgroundImageFix" result="effect1_dropShadow_44_87"/>
<feBlend mode="normal" in="SourceGraphic" in2="effect1_dropShadow_44_87" result="shape"/>
<feColorMatrix in="SourceAlpha" type="matrix" values="0 0 0 0 0 0 0 0 0 0 0 0 0 0 0 0 0 0 127 0" result="hardAlpha"/>
<feOffset/>
<feGaussianBlur stdDeviation="6.5"/>
<feComposite in2="hardAlpha" operator="arithmetic" k2="-1" k3="1"/>
<feColorMatrix type="matrix" values="0 0 0 0 0.980392 0 0 0 0 0.745098 0 0 0 0 0.141176 0 0 0 0.58 0"/>
<feBlend mode="normal" in2="shape" result="effect2_innerShadow_44_87"/>
</filter>
<linearGradient id="paint0_linear_44_87" x1="84.244" y1="218.491" x2="108.921" y2="228.844" gradientUnits="userSpaceOnUse">
<stop/>
<stop offset="1" stop-opacity="0.68"/>
</linearGradient>
<linearGradient id="paint1_linear_44_87" x1="40.1747" y1="116.186" x2="108.426" y2="170.39" gradientUnits="userSpaceOnUse">
<stop offset="0.255988" stop-color="#B5B5B5" stop-opacity="0.55"/>
<stop offset="1" stop-color="#F3F3F3" stop-opacity="0"/>
</linearGradient>
<clipPath id="clip0_44_87">
<rect width="18.1148" height="18.1148" fill="white" transform="translate(59.9243 95.8964) rotate(-16.0372)"/>
</clipPath>
<clipPath id="clip1_44_87">
<rect width="14.6087" height="14.6087" fill="white" transform="translate(104.311 54.5974) rotate(-18.0886)"/>
</clipPath>
<clipPath id="clip2_44_87">
<rect width="14.6087" height="14.6087" fill="white" transform="translate(114.131 87.2726)"/>
</clipPath>
</defs>
</svg>
