<svg width="24" height="24" viewBox="0 0 24 24" fill="none" xmlns="http://www.w3.org/2000/svg">
<circle cx="12" cy="12" r="12" fill="#CC9B00"/>
<path d="M6.17739 10.5277L7.85478 12.2045L6.17739 13.8812L4.5 12.2045L6.17739 10.5277Z" fill="white"/>
<path d="M12 10.5277L13.6774 12.2045L12 13.8812L10.3226 12.2045L12 10.5277Z" fill="white"/>
<path d="M17.8226 10.5277L19.5 12.2045L17.8226 13.8812L16.1452 12.2045L17.8226 10.5277Z" fill="white"/>
<path d="M12.0159 4.69873L16.6075 9.28854L14.9301 10.9653L10.3385 6.37548L12.0159 4.69873Z" fill="white"/>
<path d="M12.0217 4.69873L7.4301 9.28854L9.10749 10.9653L13.699 6.37548L12.0217 4.69873Z" fill="white"/>
<path d="M12.0159 19.6987L16.6075 15.1089L14.9301 13.4322L10.3385 18.022L12.0159 19.6987Z" fill="white"/>
<path d="M12.0217 19.6987L7.4301 15.1089L9.10749 13.4322L13.699 18.022L12.0217 19.6987Z" fill="white"/>
</svg>
