<svg width="60" height="60" viewBox="0 0 60 60" fill="none" xmlns="http://www.w3.org/2000/svg">
<circle cx="30" cy="30" r="30" fill="#DFF1FE"/>
<path fill-rule="evenodd" clip-rule="evenodd" d="M22.7497 44L22.7497 37.25H16V38C16 41.3137 18.6863 44 22 44H22.7497ZM26.7497 44H33.2497L33.2497 37.25H26.7497V44ZM37.2497 44H38C41.3137 44 44 41.3137 44 38V22C44 18.6863 41.3137 16 38 16H26.7497L26.7497 33.25H43.9997V37.25H37.2497L37.2497 44ZM22.7497 16H22C18.6863 16 16 18.6863 16 22V22.75H22.7497L22.7497 16ZM16 26.75V33.25H22.7497L22.7497 26.75H16Z" fill="#102534"/>
</svg>
