<svg xmlns="http://www.w3.org/2000/svg" xmlns:xlink="http://www.w3.org/1999/xlink" viewBox="0 0 220.88 220.88"><defs><linearGradient id="a" x1="138.01" y1="27.54" x2="47.05" y2="168.07" gradientUnits="userSpaceOnUse"><stop offset="0" stop-color="#50eea9"/><stop offset="0.1" stop-color="#55e7ac"/><stop offset="0.26" stop-color="#62d2b5"/><stop offset="0.45" stop-color="#77b0c4"/><stop offset="0.67" stop-color="#9582d9"/><stop offset="0.9" stop-color="#ba46f3"/><stop offset="1" stop-color="#cb2cff"/></linearGradient><linearGradient id="b" x1="175.56" y1="51.84" x2="84.6" y2="192.37" xlink:href="#a"/><linearGradient id="c" x1="156.39" y1="39.44" x2="65.44" y2="179.97" xlink:href="#a"/></defs><circle cx="110.44" cy="110.44" r="110.44" fill="#0f0338"/><path d="M179.78,56.21H65.53a.89.89,0,0,0-.63.27L40.47,82.62a.86.86,0,0,0,.62,1.44H155.35a.85.85,0,0,0,.62-.27l24.44-26.15A.85.85,0,0,0,179.78,56.21Z" fill="url(#a)"/><path d="M180.89,136.82H66.63a.86.86,0,0,0-.62.27L41.58,163.23a.85.85,0,0,0,.62,1.44H156.46a.86.86,0,0,0,.62-.27l24.43-26.15A.85.85,0,0,0,180.89,136.82Z" fill="url(#b)"/><path d="M179.78,124.36H65.53a.89.89,0,0,1-.63-.27L40.47,98a.85.85,0,0,1,.62-1.43H155.35a.81.81,0,0,1,.62.27l24.44,26.14A.85.85,0,0,1,179.78,124.36Z" fill="url(#c)"/></svg>