<svg width="307" height="54" viewBox="0 0 307 54" fill="none" xmlns="http://www.w3.org/2000/svg">
<g clip-path="url(#clip0_45_306)">
<path fill-rule="evenodd" clip-rule="evenodd" d="M25.9996 53.25C19.4209 53.25 6.50794 45.81 3.21825 40.125C-0.0714467 34.44 -0.0714467 19.56 3.21825 13.875C6.50794 8.19 19.4209 0.75 25.9996 0.75C32.5782 0.75 45.492 8.19 48.7809 13.875C52.0699 19.56 52.0706 34.44 48.7809 40.125C45.4912 45.81 32.5782 53.25 25.9996 53.25Z" fill="white" fill-opacity="0.03"/>
<path fill-rule="evenodd" clip-rule="evenodd" d="M25.9996 53.25C19.4209 53.25 6.50794 45.81 3.21825 40.125C-0.0714467 34.44 -0.0714467 19.56 3.21825 13.875C6.50794 8.19 19.4209 0.75 25.9996 0.75C32.5782 0.75 45.492 8.19 48.7809 13.875C52.0699 19.56 52.0706 34.44 48.7809 40.125C45.4912 45.81 32.5782 53.25 25.9996 53.25Z" fill="#FABE24" fill-opacity="0.14"/>
<path fill-rule="evenodd" clip-rule="evenodd" d="M25.9996 53.25C19.4209 53.25 6.50794 45.81 3.21825 40.125C-0.0714467 34.44 -0.0714467 19.56 3.21825 13.875C6.50794 8.19 19.4209 0.75 25.9996 0.75C32.5782 0.75 45.492 8.19 48.7809 13.875C52.0699 19.56 52.0706 34.44 48.7809 40.125C45.4912 45.81 32.5782 53.25 25.9996 53.25Z" fill="url(#paint0_radial_45_306)" fill-opacity="0.32"/>
<path fill-rule="evenodd" clip-rule="evenodd" d="M25.9996 53.25C19.4209 53.25 6.50794 45.81 3.21825 40.125C-0.0714467 34.44 -0.0714467 19.56 3.21825 13.875C6.50794 8.19 19.4209 0.75 25.9996 0.75C32.5782 0.75 45.492 8.19 48.7809 13.875C52.0699 19.56 52.0706 34.44 48.7809 40.125C45.4912 45.81 32.5782 53.25 25.9996 53.25Z" stroke="#FABE24" stroke-width="2" stroke-miterlimit="10"/>
<path fill-rule="evenodd" clip-rule="evenodd" d="M15.893 26.9843C15.8838 25.7547 15.9672 24.5263 16.1425 23.3093C16.2929 22.4408 16.725 22.4948 17.0444 22.6845L20.3093 24.8205C20.6501 25.0657 20.9275 25.3884 21.1186 25.7617C21.3096 26.1351 21.4089 26.5485 21.4082 26.9678V27.03C21.4099 27.4492 21.3116 27.8627 21.1214 28.2365C20.9313 28.6103 20.6547 28.9335 20.3146 29.1795L17.049 31.3163C16.7265 31.506 16.2974 31.5593 16.1471 30.6915C15.9717 29.4745 15.8883 28.246 15.8975 27.0165C15.8975 27.012 15.8975 27.0075 15.8975 27.003L15.893 26.9843Z" fill="white"/>
<path fill-rule="evenodd" clip-rule="evenodd" d="M36.0941 26.9843C36.1034 25.7547 36.02 24.5263 35.8446 23.3093C35.6943 22.4408 35.2621 22.4948 34.9427 22.6845L31.6778 24.8205C31.3377 25.0665 31.0611 25.3897 30.871 25.7635C30.6808 26.1373 30.5825 26.5508 30.5843 26.97V27.0323C30.5825 27.4514 30.6808 27.865 30.871 28.2387C31.0611 28.6125 31.3377 28.9358 31.6778 29.1818L34.9427 31.3178C35.2651 31.5075 35.6943 31.5608 35.8446 30.693C36.02 29.476 36.1034 28.2475 36.0941 27.018V27.0045V26.9843Z" fill="white"/>
<path fill-rule="evenodd" clip-rule="evenodd" d="M20.9557 18.2625C22.0189 17.6391 23.1276 17.0963 24.2724 16.6388C25.0992 16.3388 25.2705 16.7348 25.2675 17.1083L25.0451 20.9985C25.0016 21.4155 24.8594 21.8161 24.63 22.1674C24.4006 22.5186 24.0908 22.8102 23.726 23.0183L23.6719 23.0498C23.309 23.2609 22.9008 23.3829 22.4813 23.4054C22.0618 23.428 21.6429 23.3505 21.2593 23.1795L17.7735 21.426C17.4473 21.2423 17.1857 20.8965 17.8636 20.3318C18.833 19.5712 19.8583 18.8845 20.9309 18.2775L20.9421 18.2708L20.9557 18.2625Z" fill="white"/>
<path fill-rule="evenodd" clip-rule="evenodd" d="M31.0562 35.7203C32.1287 35.1132 33.154 34.4265 34.1234 33.666C34.7998 33.1005 34.539 32.7555 34.2136 32.5718L30.727 30.8183C30.3434 30.6472 29.9245 30.5698 29.505 30.5923C29.0854 30.6149 28.6773 30.7368 28.3144 30.948L28.2603 30.9795C27.8954 31.1874 27.5854 31.4791 27.3559 31.8303C27.1264 32.1815 26.984 32.5822 26.9405 32.9993L26.7188 36.8888C26.7188 37.2638 26.8841 37.6613 27.7138 37.3583C28.8586 36.901 29.9674 36.3585 31.0306 35.7353L31.0419 35.7285L31.0562 35.7203Z" fill="white"/>
<path fill-rule="evenodd" clip-rule="evenodd" d="M31.0306 18.2625C29.9674 17.6391 28.8587 17.0963 27.7139 16.6388C26.8871 16.3388 26.7158 16.7348 26.7188 17.1083L26.9405 20.9978C26.9839 21.4147 27.1262 21.8154 27.3556 22.1666C27.5849 22.5178 27.8948 22.8095 28.2595 23.0175L28.3137 23.049C28.6766 23.2602 29.0847 23.3821 29.5042 23.4047C29.9238 23.4272 30.3427 23.3498 30.7262 23.1788L34.2129 21.4253C34.5383 21.2415 34.8006 20.8958 34.1227 20.331C33.1533 19.5705 32.128 18.8838 31.0554 18.2768L31.0442 18.27L31.0306 18.2625Z" fill="white"/>
<path fill-rule="evenodd" clip-rule="evenodd" d="M20.9301 35.7203C19.8576 35.1132 18.8323 34.4265 17.8629 33.666C17.1865 33.1005 17.4473 32.7555 17.7727 32.5718L21.2593 30.8183C21.6429 30.6472 22.0618 30.5698 22.4813 30.5923C22.9009 30.6149 23.309 30.7368 23.6719 30.948L23.726 30.9795C24.0908 31.1875 24.4006 31.4792 24.63 31.8304C24.8594 32.1816 25.0016 32.5823 25.0451 32.9993L25.2668 36.8888C25.2668 37.2638 25.1014 37.6613 24.2717 37.3583C23.1269 36.901 22.0182 36.3585 20.9549 35.7353L20.9437 35.7285L20.9301 35.7203Z" fill="white"/>
<path fill-rule="evenodd" clip-rule="evenodd" d="M26.0064 8.09024C26.9661 8.09024 27.8866 8.47058 28.5653 9.14764C29.2441 9.8247 29.6257 10.743 29.626 11.7007C29.6257 12.6582 29.2443 13.5763 28.5659 14.2533C27.8874 14.9303 26.9674 15.3108 26.0079 15.3112C25.0484 15.3108 24.1284 14.9303 23.4499 14.2533C22.7715 13.5763 22.3902 12.6582 22.3898 11.7007C22.3902 10.7436 22.7713 9.82568 23.4494 9.1487C24.1275 8.47173 25.0472 8.09104 26.0064 8.09024Z" fill="#FABE24"/>
<path fill-rule="evenodd" clip-rule="evenodd" d="M26.0064 38.6865C26.966 38.6867 27.8863 39.0671 28.5649 39.7442C29.2435 40.4212 29.6249 41.3394 29.6253 42.297C29.6249 43.2544 29.2436 44.1726 28.5651 44.8496C27.8867 45.5266 26.9666 45.9071 26.0072 45.9075C25.0477 45.9071 24.1277 45.5266 23.4492 44.8496C22.7708 44.1726 22.3894 43.2544 22.389 42.297C22.3894 41.3397 22.7707 40.4217 23.4489 39.7447C24.1272 39.0677 25.0471 38.6871 26.0064 38.6865Z" fill="#FABE24"/>
<path fill-rule="evenodd" clip-rule="evenodd" d="M42.4172 17.5455C42.8964 18.3749 43.026 19.3602 42.7777 20.2849C42.5294 21.2097 41.9234 21.9983 41.0929 22.4775C40.2618 22.9559 39.2743 23.0854 38.3476 22.8376C37.4208 22.5898 36.6305 21.985 36.1505 21.156C35.6711 20.3266 35.5413 19.3413 35.7896 18.4165C36.0379 17.4917 36.644 16.7031 37.4747 16.224C38.3059 15.7458 39.2933 15.6164 40.22 15.8642C41.1467 16.112 41.9369 16.7167 42.4172 17.5455V17.5455Z" fill="#FABE24"/>
<path fill-rule="evenodd" clip-rule="evenodd" d="M15.863 32.8425C16.3424 33.6719 16.4722 34.6572 16.2238 35.582C15.9755 36.5068 15.3694 37.2954 14.5387 37.7745C13.7076 38.2529 12.7201 38.3824 11.7934 38.1346C10.8666 37.8868 10.0763 37.2819 9.59625 36.453C9.11687 35.6236 8.98708 34.6383 9.2354 33.7135C9.48372 32.7887 10.0898 32.0001 10.9205 31.521C11.7517 31.0426 12.7391 30.9131 13.6659 31.1609C14.5926 31.4087 15.3829 32.0135 15.863 32.8425Z" fill="#FABE24"/>
<path fill-rule="evenodd" clip-rule="evenodd" d="M9.59622 17.5455C10.0764 16.7167 10.8667 16.112 11.7934 15.8642C12.7201 15.6164 13.7075 15.7458 14.5387 16.224C15.3692 16.7032 15.9752 17.4918 16.2235 18.4166C16.4718 19.3413 16.3421 20.3266 15.8629 21.156C15.3829 21.985 14.5926 22.5898 13.6658 22.8376C12.7391 23.0854 11.7516 22.9559 10.9205 22.4775C10.09 21.9983 9.48398 21.2097 9.23567 20.2849C8.98737 19.3602 9.11704 18.3749 9.59622 17.5455V17.5455Z" fill="#FABE24"/>
<path fill-rule="evenodd" clip-rule="evenodd" d="M36.1499 32.8425C36.63 32.0135 37.4203 31.4087 38.347 31.1609C39.2738 30.9131 40.2612 31.0426 41.0924 31.521C41.9229 32.0002 42.5289 32.7888 42.7772 33.7135C43.0255 34.6383 42.8958 35.6236 42.4167 36.453C41.9366 37.2819 41.1463 37.8868 40.2196 38.1346C39.2928 38.3824 38.3053 38.2529 37.4742 37.7745C36.6437 37.2953 36.0377 36.5067 35.7894 35.5819C35.5411 34.6572 35.6708 33.6719 36.1499 32.8425V32.8425Z" fill="#FABE24"/>
</g>
<path d="M81.1406 35.7889C81.1406 35.1639 80.6875 34.7889 79.9844 34.7889H70.8906V16.5077C70.8906 15.7733 70.4531 15.3046 69.7812 15.3046C69.1094 15.3046 68.7031 15.7733 68.7031 16.5077V34.8046C68.7031 36.2108 69.3125 36.7733 70.8438 36.7733H79.9844C80.6875 36.7733 81.1406 36.3983 81.1406 35.7889Z" fill="white"/>
<path d="M87.8638 36.9764C88.4575 36.9764 88.8169 36.6952 89.0513 35.9608L91.0669 30.0546H99.3325L101.348 35.9608C101.598 36.6952 101.942 36.9764 102.536 36.9764C103.161 36.9764 103.583 36.6014 103.583 36.0233C103.583 35.7733 103.52 35.5233 103.426 35.2577L96.7231 16.5389C96.4106 15.7108 95.9731 15.3046 95.2075 15.3046C94.4263 15.3046 94.0044 15.7108 93.6919 16.5389L86.9731 35.2577C86.8794 35.5233 86.8325 35.7733 86.8325 36.0233C86.8325 36.6171 87.2388 36.9764 87.8638 36.9764ZM91.6919 28.2577L95.1606 18.1483H95.2544L98.7075 28.2577H91.6919Z" fill="white"/>
<path d="M126.024 29.3827V16.5077C126.024 15.7733 125.603 15.3046 124.931 15.3046C124.259 15.3046 123.837 15.7733 123.837 16.5077V29.3827C123.837 32.9764 121.634 35.2421 118.118 35.2421C114.618 35.2421 112.399 32.9921 112.399 29.3827V16.5077C112.399 15.7733 111.978 15.3046 111.306 15.3046C110.634 15.3046 110.212 15.7733 110.212 16.5077V29.3358C110.212 34.0858 113.118 37.2421 118.118 37.2421C122.868 37.2421 126.024 34.1014 126.024 29.3827Z" fill="white"/>
<path d="M136.888 35.7264V19.2108H136.982L147.529 35.7108C148.107 36.6327 148.466 36.9139 149.122 36.9139C149.935 36.9139 150.372 36.3827 150.372 35.4139V16.5077C150.372 15.7733 149.966 15.3046 149.294 15.3046C148.622 15.3046 148.232 15.7733 148.232 16.5077V33.0389H148.122L137.654 16.6639C137.138 15.8358 136.716 15.3202 136.029 15.3202C135.185 15.3202 134.747 15.8514 134.747 16.8202V35.7264C134.747 36.4608 135.138 36.9296 135.81 36.9296C136.482 36.9296 136.888 36.4608 136.888 35.7264Z" fill="white"/>
<path d="M158.502 27.9139C158.502 33.8202 161.502 37.2421 166.689 37.2421C169.174 37.2421 171.189 36.4608 172.627 35.0233C173.689 33.9452 174.377 32.5702 174.377 31.5858C174.377 30.9764 174.018 30.5858 173.377 30.5858C172.877 30.5858 172.596 30.8358 172.268 31.5233C171.252 33.9764 169.314 35.2421 166.768 35.2421C162.893 35.2421 160.689 32.6014 160.689 27.9296V24.3202C160.689 19.6639 162.877 16.9921 166.721 16.9921C169.221 16.9921 171.096 18.3046 172.174 20.7733C172.518 21.5077 172.846 21.7421 173.361 21.7421C173.939 21.7421 174.33 21.3671 174.33 20.7108C174.33 19.7889 173.658 18.3827 172.596 17.3046C171.143 15.7889 169.158 15.0077 166.658 15.0077C161.502 15.0077 158.502 18.4608 158.502 24.3358V27.9139Z" fill="white"/>
<path d="M196.928 36.9296C197.6 36.9296 198.022 36.4608 198.022 35.7264V16.5077C198.022 15.7733 197.6 15.3046 196.928 15.3046C196.256 15.3046 195.834 15.7733 195.834 16.5077V24.6952H184.491V16.5077C184.491 15.7733 184.053 15.3046 183.381 15.3046C182.709 15.3046 182.303 15.7733 182.303 16.5077V35.7264C182.303 36.4608 182.709 36.9296 183.381 36.9296C184.053 36.9296 184.491 36.4608 184.491 35.7264V26.6952H195.834V35.7264C195.834 36.4608 196.256 36.9296 196.928 36.9296Z" fill="white"/>
<path d="M213.589 33.9608H213.479L207.432 16.3202C207.182 15.5702 206.839 15.2421 206.276 15.2421C205.636 15.2421 205.136 15.6483 205.136 16.2577C205.136 16.5077 205.214 16.8514 205.323 17.1952L211.979 35.5077C212.354 36.5077 212.776 36.9452 213.542 36.9452C214.292 36.9452 214.698 36.5077 215.073 35.5077L221.761 17.1952C221.854 16.9296 221.964 16.4921 221.964 16.2577C221.964 15.6483 221.448 15.2421 220.839 15.2421C220.276 15.2421 219.917 15.5702 219.651 16.3202L213.589 33.9608Z" fill="white"/>
<path d="M229.468 34.8046C229.468 36.2108 230.077 36.7733 231.609 36.7733H240.937C241.656 36.7733 242.109 36.3983 242.109 35.7889C242.109 35.1639 241.656 34.7733 240.937 34.7733H231.656V26.8671H240.39C241.109 26.8671 241.562 26.4921 241.562 25.8827C241.562 25.2733 241.109 24.8827 240.39 24.8827H231.656V17.4608H240.952C241.671 17.4608 242.124 17.0858 242.124 16.4764C242.124 15.8514 241.671 15.4608 240.952 15.4608H231.609C230.077 15.4608 229.468 16.0389 229.468 17.4452V34.8046Z" fill="white"/>
<path d="M252.269 35.7264V28.0233H257.879L261.863 35.8514C262.223 36.5546 262.551 36.8358 263.082 36.8358C263.676 36.8358 264.144 36.4139 264.144 35.8514C264.144 35.5858 264.066 35.2421 263.941 34.9921L260.066 27.5702C262.613 26.7577 264.176 24.5389 264.176 21.7264C264.176 17.8983 261.598 15.4608 257.504 15.4608H252.223C250.691 15.4608 250.082 16.0389 250.082 17.4452V35.7264C250.082 36.4608 250.488 36.9296 251.16 36.9296C251.832 36.9296 252.269 36.4608 252.269 35.7264ZM252.269 26.0389V17.4452H257.223C260.176 17.4452 261.926 19.0546 261.926 21.8046C261.926 24.5233 260.207 26.0389 257.129 26.0389H252.269Z" fill="white"/>
<path d="M271.117 32.3671C271.117 33.3514 271.821 34.5077 273.008 35.5077C274.305 36.6171 276.352 37.2421 278.68 37.2421C283.242 37.2421 286.133 34.8983 286.133 31.1483C286.133 28.1639 284.477 26.4452 280.555 25.3671L277.196 24.4296C274.946 23.8202 273.852 22.6327 273.852 20.8514C273.852 18.5077 275.758 16.9921 278.727 16.9921C281.102 16.9921 282.992 18.1796 283.586 20.0546C283.774 20.6014 284.117 20.8358 284.664 20.8358C285.258 20.8358 285.633 20.4296 285.633 19.8202C285.633 18.7577 284.992 17.6014 283.899 16.6796C282.602 15.6014 280.742 15.0077 278.68 15.0077C274.414 15.0077 271.555 17.3983 271.555 20.9921C271.555 23.7733 273.227 25.6014 276.586 26.5233L280.024 27.4608C282.727 28.1952 283.914 29.3983 283.914 31.3827C283.914 33.7577 281.946 35.2421 278.821 35.2421C276.274 35.2421 274.492 34.2577 273.492 32.3671C273.024 31.5858 272.649 31.2889 272.102 31.2889C271.524 31.2889 271.117 31.7264 271.117 32.3671Z" fill="white"/>
<path d="M293.809 34.8046C293.809 36.2108 294.419 36.7733 295.95 36.7733H305.278C305.997 36.7733 306.45 36.3983 306.45 35.7889C306.45 35.1639 305.997 34.7733 305.278 34.7733H295.997V26.8671H304.731C305.45 26.8671 305.903 26.4921 305.903 25.8827C305.903 25.2733 305.45 24.8827 304.731 24.8827H295.997V17.4608H305.294C306.012 17.4608 306.466 17.0858 306.466 16.4764C306.466 15.8514 306.012 15.4608 305.294 15.4608H295.95C294.419 15.4608 293.809 16.0389 293.809 17.4452V34.8046Z" fill="white"/>
<defs>
<radialGradient id="paint0_radial_45_306" cx="0" cy="0" r="1" gradientUnits="userSpaceOnUse" gradientTransform="translate(25.9994 27) rotate(90) scale(26.25 25.2485)">
<stop stop-color="#FBBF24"/>
<stop offset="1" stop-color="#FBBF24" stop-opacity="0"/>
</radialGradient>
<clipPath id="clip0_45_306">
<rect width="52" height="54" fill="white"/>
</clipPath>
</defs>
</svg>
