<svg width="306" height="56" viewBox="0 0 306 56" fill="none" xmlns="http://www.w3.org/2000/svg">
<g clip-path="url(#clip0_79_5)">
<path d="M82.273 38.3841C82.273 37.7774 81.8329 37.4174 81.1503 37.4174H72.3193V19.7421C72.3358 19.5931 72.3201 19.4422 72.273 19.2997C72.226 19.1572 72.1489 19.0265 72.0468 18.9162C71.9447 18.8059 71.82 18.7187 71.6812 18.6605C71.5423 18.6023 71.3926 18.5743 71.242 18.5786C71.0929 18.5752 70.9449 18.6039 70.808 18.6629C70.6712 18.7219 70.5488 18.8097 70.4493 18.9202C70.3498 19.0308 70.2756 19.1616 70.2317 19.3034C70.1878 19.4453 70.1754 19.595 70.1952 19.7421V37.4329C70.1952 38.7926 70.787 39.3366 72.2739 39.3366H81.151C81.8349 39.3353 82.273 38.9733 82.273 38.3841ZM89.2691 39.5301C89.846 39.5301 90.1947 39.2605 90.4202 38.5479L92.3777 32.8375H100.41L102.367 38.5479C102.61 39.2578 102.944 39.5301 103.518 39.5301C103.648 39.5437 103.778 39.53 103.901 39.4897C104.025 39.4495 104.138 39.3836 104.234 39.2966C104.33 39.2095 104.407 39.1032 104.458 38.9846C104.51 38.866 104.536 38.7379 104.534 38.6086C104.526 38.3546 104.475 38.1038 104.382 37.8671L97.8753 19.7711C97.5719 18.9703 97.1467 18.5779 96.4032 18.5779C95.6442 18.5779 95.2345 18.971 94.9312 19.7711L88.4064 37.8704C88.3187 38.108 88.2729 38.3589 88.271 38.612C88.2664 38.7406 88.2898 38.8687 88.3396 38.9875C88.3893 39.1063 88.4642 39.213 88.5591 39.3003C88.6541 39.3877 88.7668 39.4536 88.8897 39.4936C89.0126 39.5336 89.1426 39.5468 89.2711 39.5321L89.2691 39.5301ZM92.9871 31.1037L96.3558 21.329H96.4466L99.8003 31.1037H92.9871ZM126.828 32.1897V19.7415C126.846 19.5933 126.832 19.443 126.786 19.3008C126.741 19.1586 126.665 19.0279 126.564 18.9174C126.463 18.807 126.34 18.7195 126.202 18.6609C126.064 18.6023 125.915 18.574 125.765 18.5779C125.615 18.574 125.467 18.6023 125.329 18.6609C125.191 18.7195 125.067 18.807 124.966 18.9174C124.866 19.0279 124.79 19.1586 124.744 19.3008C124.699 19.443 124.685 19.5933 124.703 19.7415V32.1897C124.703 35.6641 122.563 37.8522 119.15 37.8522C115.751 37.8522 113.598 35.6769 113.598 32.1897V19.7415C113.616 19.5933 113.602 19.443 113.557 19.3008C113.511 19.1586 113.435 19.0279 113.335 18.9174C113.234 18.807 113.11 18.7195 112.972 18.6609C112.834 18.6023 112.686 18.574 112.536 18.5779C112.386 18.574 112.237 18.6023 112.099 18.6609C111.961 18.7195 111.838 18.807 111.737 18.9174C111.636 19.0279 111.56 19.1586 111.515 19.3008C111.469 19.443 111.455 19.5933 111.473 19.7415V32.1452C111.473 36.7379 114.296 39.7896 119.152 39.7896C123.764 39.789 126.828 36.7521 126.828 32.1897ZM137.876 38.3241V22.355H137.966L148.211 38.3093C148.772 39.2005 149.121 39.4728 149.758 39.4728C150.547 39.4728 150.973 38.9591 150.973 38.0228V19.7415C150.992 19.5943 150.98 19.4447 150.936 19.3028C150.892 19.1609 150.818 19.0302 150.718 18.9196C150.619 18.809 150.497 18.7212 150.36 18.6622C150.223 18.6032 150.075 18.5745 149.926 18.5779C149.273 18.5779 148.894 19.0309 148.894 19.7415V35.7247H148.787L138.62 19.8925C138.119 19.0916 137.71 18.5934 137.042 18.5934C136.223 18.5934 135.798 19.1071 135.798 20.0435V38.3228C135.798 39.0326 136.177 39.4863 136.829 39.4863C136.979 39.4898 137.127 39.4612 137.264 39.4023C137.4 39.3434 137.523 39.2557 137.622 39.1451C137.722 39.0346 137.796 38.9039 137.84 38.7621C137.884 38.6202 137.897 38.4706 137.877 38.3234L137.876 38.3241ZM159.363 30.7707C159.363 36.4811 162.275 39.7896 167.315 39.7896C168.371 39.8355 169.426 39.6692 170.417 39.3007C171.408 38.9322 172.314 38.369 173.081 37.6446C174.026 36.7726 174.628 35.5946 174.781 34.3212C174.793 34.1913 174.776 34.0603 174.731 33.9376C174.687 33.8149 174.616 33.7035 174.523 33.6113C174.43 33.519 174.318 33.4482 174.195 33.4038C174.072 33.3594 173.94 33.3426 173.81 33.3545C173.324 33.3545 173.051 33.5965 172.733 34.2612C172.34 35.3471 171.612 36.2807 170.652 36.9271C169.691 37.5735 168.55 37.8991 167.391 37.857C163.628 37.857 161.488 35.3041 161.488 30.7868V27.2969C161.488 22.7952 163.612 20.212 167.345 20.212C169.774 20.212 171.594 21.4807 172.641 23.8677C172.975 24.5776 173.294 24.8041 173.792 24.8041C173.923 24.8104 174.053 24.7885 174.174 24.7398C174.295 24.6911 174.405 24.6167 174.494 24.5219C174.583 24.4271 174.651 24.3141 174.692 24.1906C174.734 24.0672 174.747 23.9363 174.733 23.8071C174.573 22.5478 173.977 21.3834 173.048 20.514C172.297 19.7635 171.396 19.1778 170.403 18.7945C169.411 18.4111 168.349 18.2386 167.286 18.2881C162.275 18.2881 159.363 21.627 159.363 27.3071V30.7707ZM197.164 39.4876C197.314 39.4916 197.463 39.4632 197.601 39.4047C197.738 39.3461 197.862 39.2586 197.963 39.1482C198.064 39.0377 198.139 38.907 198.185 38.7648C198.23 38.6225 198.244 38.4723 198.226 38.3241V19.7415C198.244 19.5933 198.23 19.443 198.185 19.3008C198.139 19.1586 198.064 19.0279 197.963 18.9174C197.862 18.807 197.738 18.7195 197.601 18.6609C197.463 18.6023 197.314 18.574 197.164 18.5779C197.014 18.574 196.865 18.6023 196.727 18.6609C196.589 18.7195 196.466 18.807 196.365 18.9174C196.264 19.0279 196.188 19.1586 196.143 19.3008C196.097 19.443 196.083 19.5933 196.101 19.7415V27.6583H185.085V19.7415C185.101 19.5924 185.085 19.4415 185.038 19.2991C184.991 19.1566 184.914 19.0258 184.812 18.9155C184.71 18.8052 184.585 18.718 184.447 18.6598C184.308 18.6016 184.158 18.5737 184.007 18.5779C183.858 18.5745 183.71 18.6032 183.573 18.6622C183.437 18.7212 183.314 18.809 183.215 18.9196C183.115 19.0302 183.041 19.1609 182.997 19.3028C182.953 19.4447 182.941 19.5943 182.961 19.7415V38.3234C182.941 38.4706 182.953 38.6203 182.997 38.7621C183.041 38.904 183.115 39.0348 183.215 39.1453C183.314 39.2559 183.437 39.3437 183.573 39.4027C183.71 39.4617 183.858 39.4904 184.007 39.487C184.158 39.4912 184.308 39.4633 184.447 39.4051C184.585 39.3469 184.71 39.2597 184.812 39.1494C184.914 39.0391 184.991 38.9083 185.038 38.7659C185.085 38.6234 185.101 38.4725 185.085 38.3234V29.5916H196.101V38.3234C196.083 38.4716 196.098 38.622 196.143 38.7642C196.189 38.9064 196.265 39.0372 196.366 39.1476C196.467 39.2579 196.59 39.3453 196.728 39.4038C196.866 39.4622 197.015 39.4904 197.165 39.4863L197.164 39.4876ZM213.841 36.6173H213.735L207.862 19.5622C207.619 18.8368 207.285 18.52 206.74 18.52C206.601 18.5074 206.462 18.5232 206.33 18.5666C206.197 18.6099 206.076 18.6797 205.972 18.7718C205.868 18.8639 205.784 18.9762 205.726 19.1019C205.667 19.2275 205.635 19.3637 205.632 19.5022C205.65 19.8114 205.711 20.1166 205.814 20.4088L212.281 38.1118C212.645 39.0785 213.055 39.5018 213.798 39.5018C214.527 39.5018 214.921 39.0791 215.288 38.1118L221.783 20.4061C221.889 20.114 221.955 19.8091 221.98 19.4995C221.976 19.3626 221.944 19.228 221.886 19.1038C221.828 18.9796 221.746 18.8682 221.644 18.7765C221.541 18.6847 221.422 18.6145 221.292 18.5699C221.162 18.5254 221.024 18.5075 220.887 18.5173C220.34 18.5173 219.992 18.8348 219.736 19.5595L213.841 36.6173ZM229.745 37.4329C229.745 38.7926 230.337 39.3366 231.824 39.3366H240.883C241.581 39.3366 242.021 38.974 242.021 38.3848C242.021 37.7781 241.581 37.4026 240.883 37.4026H231.87V29.7581H240.353C241.051 29.7581 241.491 29.3955 241.491 28.8063C241.491 28.2171 241.051 27.8396 240.353 27.8396H231.87V20.663H240.899C241.597 20.663 242.037 20.3003 242.037 19.7111C242.037 19.1044 241.597 18.7289 240.899 18.7289H231.826C230.336 18.7289 229.747 19.2878 229.747 20.6475L229.745 37.4329ZM252.371 38.3241V30.8758H257.818L261.689 38.4441C262.038 39.1236 262.357 39.396 262.873 39.396C263.004 39.4029 263.135 39.3835 263.258 39.3391C263.381 39.2946 263.494 39.226 263.591 39.1372C263.687 39.0485 263.764 38.9414 263.818 38.8223C263.872 38.7033 263.901 38.5747 263.904 38.4441C263.899 38.1563 263.832 37.8729 263.707 37.6129L259.944 30.437C261.141 30.0641 262.181 29.3083 262.903 28.2867C263.625 27.2651 263.987 26.035 263.935 24.7872C263.935 21.0856 261.43 18.7296 257.456 18.7296H252.326C250.837 18.7296 250.248 19.2885 250.248 20.6481V38.3234C250.228 38.4706 250.24 38.6203 250.284 38.7621C250.328 38.904 250.402 39.0348 250.502 39.1453C250.601 39.2559 250.724 39.3437 250.86 39.4027C250.997 39.4617 251.145 39.4904 251.294 39.487C251.445 39.4912 251.595 39.4633 251.734 39.4051C251.872 39.3469 251.997 39.2597 252.099 39.1494C252.201 39.0391 252.278 38.9083 252.325 38.7659C252.372 38.6234 252.388 38.4725 252.372 38.3234L252.371 38.3241ZM252.371 28.958V20.6475H257.179C260.047 20.6475 261.746 22.2033 261.746 24.862C261.746 27.4911 260.077 28.9559 257.087 28.9559L252.371 28.958ZM271.174 35.0735C271.174 36.0254 271.857 37.1431 273.01 38.1071C274.596 39.2835 276.543 39.8762 278.519 39.7843C282.95 39.7843 285.757 37.5179 285.757 33.8925C285.757 31.0073 284.149 29.3456 280.34 28.3027L277.078 27.396C274.893 26.8069 273.828 25.6588 273.828 23.9365C273.828 21.6701 275.679 20.2053 278.562 20.2053C280.868 20.2053 282.705 21.3513 283.282 23.166C283.337 23.3953 283.473 23.5973 283.665 23.7357C283.857 23.8742 284.092 23.9401 284.329 23.9217C284.458 23.9273 284.586 23.9054 284.706 23.8574C284.826 23.8094 284.934 23.7364 285.023 23.6433C285.112 23.5503 285.18 23.4393 285.223 23.3179C285.265 23.1965 285.281 23.0675 285.269 22.9395C285.221 22.3437 285.046 21.7649 284.755 21.2419C284.465 20.7188 284.066 20.2633 283.584 19.906C282.133 18.8009 280.342 18.2293 278.516 18.2881C274.373 18.2881 271.597 20.5996 271.597 24.074C271.597 26.763 273.222 28.5306 276.483 29.4218L279.821 30.3284C282.446 31.0383 283.599 32.2018 283.599 34.1203C283.599 36.4164 281.687 37.8516 278.652 37.8516C276.179 37.8516 274.449 36.8997 273.478 35.0722C273.023 34.3165 272.658 34.03 272.127 34.03C271.993 34.0303 271.862 34.0582 271.74 34.112C271.618 34.1658 271.509 34.2443 271.419 34.3425C271.33 34.4407 271.261 34.5564 271.219 34.6823C271.177 34.8082 271.162 34.9414 271.174 35.0735ZM293.709 37.4329C293.709 38.7926 294.301 39.3366 295.787 39.3366H304.847C305.545 39.3366 305.985 38.974 305.985 38.3848C305.985 37.7781 305.545 37.4026 304.847 37.4026H295.833V29.7581H304.315C305.013 29.7581 305.453 29.3955 305.453 28.8063C305.453 28.2171 305.013 27.8396 304.315 27.8396H295.833V20.663H304.862C305.56 20.663 306 20.3003 306 19.7111C306 19.1044 305.56 18.7289 304.862 18.7289H295.788C294.298 18.7289 293.709 19.2878 293.709 20.6475L293.709 37.4329Z" fill="#1B2937"/>
<path fill-rule="evenodd" clip-rule="evenodd" d="M26.671 48.9124C21.3272 48.9124 10.8365 42.8832 8.16459 38.2756C5.49266 33.668 5.49266 21.6088 8.16459 17.0012C10.8365 12.3936 21.3292 6.36432 26.671 6.36432C32.0129 6.36432 42.5056 12.3936 45.1775 17.0012C47.8494 21.6088 47.8494 33.668 45.1775 38.2756C42.5056 42.8832 32.0203 48.9124 26.671 48.9124Z" fill="#CED4DA"/>
<path fill-rule="evenodd" clip-rule="evenodd" d="M26.6732 54.6033C19.902 54.6033 6.60393 46.9609 3.21697 41.121C-0.170004 35.2812 -0.16865 19.9963 3.21697 14.1564C6.60258 8.31656 19.8999 0.674118 26.6732 0.674118C33.4464 0.674118 46.7431 8.31656 50.1294 14.1564C53.5157 19.9963 53.515 35.2812 50.1294 41.121C46.7438 46.9609 33.4471 54.6033 26.6732 54.6033Z" fill="white" fill-opacity="0.03"/>
<g filter="url(#filter0_d_79_5)">
<path fill-rule="evenodd" clip-rule="evenodd" d="M26.6761 54.6063C19.9049 54.6063 6.60686 46.9639 3.21989 41.124C-0.167074 35.2842 -0.16572 19.9993 3.21989 14.1594C6.60551 8.31956 19.9028 0.677124 26.6761 0.677124C33.4494 0.677124 46.746 8.31956 50.1323 14.1594C53.5186 19.9993 53.5179 35.2842 50.1323 41.124C46.7467 46.9639 33.45 54.6063 26.6761 54.6063Z" fill="white"/>
</g>
<g filter="url(#filter1_d_79_5)">
<path fill-rule="evenodd" clip-rule="evenodd" d="M26.6761 54.6063C19.9049 54.6063 6.60686 46.9639 3.21989 41.124C-0.167074 35.2842 -0.16572 19.9993 3.21989 14.1594C6.60551 8.31956 19.9028 0.677124 26.6761 0.677124C33.4494 0.677124 46.746 8.31956 50.1323 14.1594C53.5186 19.9993 53.5179 35.2842 50.1323 41.124C46.7467 46.9639 33.45 54.6063 26.6761 54.6063Z" fill="white"/>
</g>
<path fill-rule="evenodd" clip-rule="evenodd" d="M26.6732 54.6033C19.902 54.6033 6.60393 46.9609 3.21697 41.121C-0.170004 35.2812 -0.16865 19.9963 3.21697 14.1564C6.60258 8.31656 19.8999 0.674118 26.6732 0.674118C33.4464 0.674118 46.7431 8.31656 50.1294 14.1564C53.5157 19.9963 53.515 35.2812 50.1294 41.121C46.7438 46.9609 33.4471 54.6033 26.6732 54.6033Z" fill="#CED4DA" fill-opacity="0.32" stroke="#FABE24" stroke-width="2" stroke-miterlimit="10"/>
<path fill-rule="evenodd" clip-rule="evenodd" d="M16.2673 27.6225C16.2578 26.3596 16.3435 25.0977 16.524 23.8475C16.6804 22.9556 17.1239 23.0109 17.4557 23.2057L20.8169 25.4C21.1672 25.6527 21.452 25.9848 21.6478 26.3688C21.8436 26.7528 21.9448 27.1777 21.943 27.6084V27.6758C21.9448 28.1065 21.8436 28.5314 21.6478 28.9154C21.452 29.2994 21.1672 29.6315 20.8169 29.8842L17.4557 32.0784C17.1239 32.2733 16.6804 32.3285 16.524 31.4367C16.3435 30.1865 16.2578 28.9246 16.2673 27.6616C16.2673 27.6569 16.2673 27.6522 16.2673 27.6482V27.6225Z" fill="#1B2937"/>
<path fill-rule="evenodd" clip-rule="evenodd" d="M37.066 27.6225C37.0754 26.3596 36.9894 25.0976 36.8087 23.8475C36.6523 22.9556 36.2094 23.0109 35.877 23.2057L32.5157 25.4C32.1655 25.6527 31.8807 25.9848 31.6848 26.3688C31.489 26.7528 31.3879 27.1777 31.3897 27.6084V27.6758C31.3879 28.1065 31.489 28.5314 31.6848 28.9154C31.8807 29.2994 32.1655 29.6315 32.5157 29.8842L35.877 32.0784C36.2088 32.2733 36.6523 32.3285 36.8087 31.4367C36.9894 30.1865 37.0754 28.9246 37.066 27.6616V27.6482V27.6225Z" fill="#1B2937"/>
<path fill-rule="evenodd" clip-rule="evenodd" d="M21.4797 18.6629C22.5743 18.0226 23.7158 17.4651 24.8944 16.9951C25.7483 16.6837 25.9223 17.0935 25.9189 17.4778L25.6907 21.4733C25.6459 21.9016 25.4994 22.3132 25.2632 22.674C25.027 23.0348 24.708 23.3345 24.3324 23.5482L24.2769 23.5805C23.9033 23.7976 23.4832 23.923 23.0514 23.9465C22.6195 23.9699 22.1882 23.8907 21.7932 23.7154L18.2044 21.9141C17.8659 21.7254 17.5991 21.3708 18.2972 20.7897C19.2952 20.0083 20.3509 19.3027 21.4553 18.6791L21.4675 18.6716L21.4797 18.6629Z" fill="#1B2937"/>
<path fill-rule="evenodd" clip-rule="evenodd" d="M31.8796 36.5964C32.984 35.9726 34.0396 35.2671 35.0377 34.4857C35.7358 33.9053 35.4657 33.5507 35.1305 33.3613L31.5417 31.56C31.1467 31.3847 30.7154 31.3055 30.2835 31.3289C29.8517 31.3524 29.4316 31.4778 29.058 31.6949L29.0025 31.7272C28.627 31.9409 28.3079 32.2406 28.0717 32.6014C27.8355 32.9622 27.689 33.3738 27.6442 33.8021L27.416 37.7976C27.416 38.1812 27.5867 38.5911 28.4405 38.2796C29.6191 37.8099 30.7606 37.2527 31.8552 36.6125L31.8674 36.6058L31.8796 36.5964Z" fill="#1B2937"/>
<path fill-rule="evenodd" clip-rule="evenodd" d="M31.8533 18.6629C30.7587 18.0226 29.6172 17.4651 28.4386 16.9951C27.5847 16.6837 27.4107 17.0935 27.4141 17.4778L27.6423 21.4733C27.6871 21.9016 27.8336 22.3132 28.0698 22.674C28.306 23.0348 28.625 23.3345 29.0006 23.5482L29.0561 23.5805C29.4297 23.7976 29.8498 23.923 30.2816 23.9465C30.7135 23.9699 31.1448 23.8907 31.5398 23.7154L35.1286 21.9141C35.4671 21.7254 35.7339 21.3708 35.0358 20.7897C34.0378 20.0083 32.9821 19.3027 31.8777 18.6791L31.8655 18.6716L31.8533 18.6629Z" fill="#1B2937"/>
<path fill-rule="evenodd" clip-rule="evenodd" d="M21.4543 36.5964C20.35 35.9726 19.2943 35.2671 18.2962 34.4857C17.5988 33.9053 17.8683 33.5507 18.2035 33.3613L21.7922 31.56C22.1873 31.3847 22.6185 31.3055 23.0504 31.3289C23.4823 31.3524 23.9024 31.4778 24.2759 31.6949L24.3314 31.7272C24.707 31.9409 25.0261 32.2406 25.2623 32.6014C25.4985 32.9622 25.645 33.3738 25.6898 33.8021L25.9179 37.7976C25.9213 38.1812 25.7473 38.5911 24.8935 38.2796C23.7148 37.8099 22.5734 37.2527 21.4787 36.6125L21.4665 36.6058L21.4543 36.5964Z" fill="#1B2937"/>
<path fill-rule="evenodd" clip-rule="evenodd" d="M26.6797 8.2141C27.6675 8.2141 28.6147 8.60472 29.3131 9.30004C30.0116 9.99535 30.4039 10.9384 30.4039 11.9217C30.4039 12.9051 30.0116 13.8481 29.3131 14.5434C28.6147 15.2387 27.6675 15.6294 26.6797 15.6294C25.692 15.6294 24.7448 15.2387 24.0464 14.5434C23.3479 13.8481 22.9556 12.9051 22.9556 11.9217C22.9556 10.9384 23.3479 9.99535 24.0464 9.30004C24.7448 8.60472 25.692 8.2141 26.6797 8.2141Z" fill="#FABE24"/>
<path fill-rule="evenodd" clip-rule="evenodd" d="M26.6807 39.6433C27.6684 39.6433 28.6157 40.034 29.3141 40.7293C30.0125 41.4246 30.4049 42.3677 30.4049 43.351C30.4049 44.3343 30.0125 45.2774 29.3141 45.9727C28.6157 46.668 27.6684 47.0586 26.6807 47.0586C25.693 47.0586 24.7457 46.668 24.0473 45.9727C23.3489 45.2774 22.9565 44.3343 22.9565 43.351C22.9565 42.3677 23.3489 41.4246 24.0473 40.7293C24.7457 40.034 25.693 39.6433 26.6807 39.6433Z" fill="#FABE24"/>
<path fill-rule="evenodd" clip-rule="evenodd" d="M43.5766 17.9267C43.8215 18.3485 43.9804 18.8142 44.0443 19.2971C44.1083 19.7801 44.076 20.2709 43.9494 20.7414C43.8227 21.2119 43.6042 21.653 43.3062 22.0394C43.0083 22.4258 42.6368 22.75 42.2129 22.9934C41.7893 23.2371 41.3215 23.3953 40.8364 23.459C40.3513 23.5227 39.8583 23.4905 39.3857 23.3645C38.9131 23.2384 38.47 23.0208 38.0819 22.7242C37.6938 22.4276 37.3681 22.0577 37.1237 21.6357C36.8788 21.2139 36.7199 20.7483 36.656 20.2653C36.592 19.7824 36.6243 19.2916 36.7509 18.8211C36.8776 18.3505 37.0961 17.9095 37.3941 17.523C37.692 17.1366 38.0635 16.8125 38.4874 16.5691C38.911 16.3253 39.3788 16.1671 39.8639 16.1035C40.349 16.0398 40.842 16.0719 41.3146 16.198C41.7872 16.3241 42.2303 16.5417 42.6184 16.8383C43.0065 17.1349 43.3322 17.5048 43.5766 17.9267Z" fill="#FABE24"/>
<path fill-rule="evenodd" clip-rule="evenodd" d="M16.2345 33.6404C16.4793 34.0621 16.6383 34.5278 16.7022 35.0108C16.7662 35.4937 16.7339 35.9845 16.6073 36.455C16.4806 36.9255 16.2621 37.3666 15.9641 37.753C15.6662 38.1394 15.2947 38.4636 14.8708 38.707C14.4472 38.9507 13.9794 39.1089 13.4943 39.1726C13.0092 39.2363 12.5162 39.2042 12.0436 39.0781C11.571 38.952 11.1279 38.7344 10.7398 38.4378C10.3517 38.1412 10.026 37.7713 9.78155 37.3493C9.53641 36.9273 9.37726 36.4613 9.31323 35.978C9.2492 35.4947 9.28153 35.0035 9.40839 34.5327C9.53525 34.0618 9.75413 33.6205 10.0525 33.2339C10.3509 32.8474 10.7229 32.5232 11.1473 32.28C11.571 32.0367 12.0388 31.8789 12.5238 31.8156C13.0088 31.7523 13.5016 31.7847 13.974 31.911C14.4464 32.0374 14.8892 32.2551 15.2771 32.5518C15.6649 32.8485 15.9903 33.2184 16.2345 33.6404Z" fill="#FABE24"/>
<path fill-rule="evenodd" clip-rule="evenodd" d="M9.78335 17.9267C10.0278 17.5048 10.3534 17.1349 10.7416 16.8383C11.1297 16.5417 11.5728 16.3241 12.0454 16.198C12.518 16.0719 13.011 16.0398 13.4961 16.1035C13.9812 16.1671 14.4489 16.3253 14.8726 16.5691C15.2963 16.8126 15.6676 17.1369 15.9654 17.5234C16.2631 17.9099 16.4814 18.351 16.6079 18.8215C16.7344 19.292 16.7664 19.7828 16.7023 20.2656C16.6382 20.7485 16.4792 21.2141 16.2343 21.6357C15.9898 22.0577 15.6642 22.4276 15.2761 22.7242C14.8879 23.0208 14.4449 23.2384 13.9723 23.3645C13.4996 23.4905 13.0067 23.5227 12.5216 23.459C12.0365 23.3953 11.5687 23.2371 11.145 22.9934C10.7214 22.7498 10.35 22.4255 10.0523 22.0391C9.75455 21.6526 9.53621 21.2115 9.40975 20.7409C9.2833 20.2704 9.25121 19.7797 9.31531 19.2968C9.37941 18.814 9.53845 18.3484 9.78335 17.9267Z" fill="#FABE24"/>
<path fill-rule="evenodd" clip-rule="evenodd" d="M37.1237 33.6404C37.3681 33.2184 37.6938 32.8485 38.0819 32.5519C38.47 32.2553 38.9131 32.0377 39.3857 31.9116C39.8583 31.7855 40.3513 31.7534 40.8364 31.8171C41.3215 31.8808 41.7893 32.039 42.2129 32.2827C42.6368 32.5261 43.0083 32.8503 43.3062 33.2367C43.6042 33.6231 43.8227 34.0642 43.9494 34.5347C44.076 35.0052 44.1083 35.496 44.0443 35.9789C43.9804 36.4619 43.8215 36.9276 43.5766 37.3493C43.3322 37.7713 43.0065 38.1412 42.6184 38.4378C42.2303 38.7344 41.7872 38.952 41.3146 39.0781C40.842 39.2042 40.349 39.2363 39.8639 39.1726C39.3788 39.109 38.911 38.9507 38.4874 38.707C38.0635 38.4636 37.692 38.1395 37.3941 37.753C37.0961 37.3666 36.8776 36.9256 36.7509 36.455C36.6243 35.9845 36.592 35.4937 36.656 35.0108C36.7199 34.5278 36.8788 34.0621 37.1237 33.6404Z" fill="#FABE24"/>
</g>
<defs>
<filter id="filter0_d_79_5" x="-67.3198" y="-67.3229" width="187.992" height="189.929" filterUnits="userSpaceOnUse" color-interpolation-filters="sRGB">
<feFlood flood-opacity="0" result="BackgroundImageFix"/>
<feColorMatrix in="SourceAlpha" type="matrix" values="0 0 0 0 0 0 0 0 0 0 0 0 0 0 0 0 0 0 127 0" result="hardAlpha"/>
<feOffset/>
<feGaussianBlur stdDeviation="34"/>
<feColorMatrix type="matrix" values="0 0 0 0 1 0 0 0 0 1 0 0 0 0 1 0 0 0 0.051 0"/>
<feBlend mode="normal" in2="BackgroundImageFix" result="effect1_dropShadow_79_5"/>
<feBlend mode="normal" in="SourceGraphic" in2="effect1_dropShadow_79_5" result="shape"/>
</filter>
<filter id="filter1_d_79_5" x="-14.3198" y="-10.3229" width="81.9917" height="83.9292" filterUnits="userSpaceOnUse" color-interpolation-filters="sRGB">
<feFlood flood-opacity="0" result="BackgroundImageFix"/>
<feColorMatrix in="SourceAlpha" type="matrix" values="0 0 0 0 0 0 0 0 0 0 0 0 0 0 0 0 0 0 127 0" result="hardAlpha"/>
<feOffset dy="4"/>
<feGaussianBlur stdDeviation="7.5"/>
<feColorMatrix type="matrix" values="0 0 0 0 1 0 0 0 0 1 0 0 0 0 1 0 0 0 0.149 0"/>
<feBlend mode="normal" in2="BackgroundImageFix" result="effect1_dropShadow_79_5"/>
<feBlend mode="normal" in="SourceGraphic" in2="effect1_dropShadow_79_5" result="shape"/>
</filter>
<clipPath id="clip0_79_5">
<rect width="306" height="55.2774" fill="white"/>
</clipPath>
</defs>
</svg>
