<svg width="60" height="60" viewBox="0 0 60 60" fill="none" xmlns="http://www.w3.org/2000/svg">
<path d="M22.5 4.33013C27.141 1.65064 32.859 1.65064 37.5 4.33013L48.4808 10.6699C53.1218 13.3494 55.9808 18.3013 55.9808 23.6603V36.3397C55.9808 41.6987 53.1218 46.6506 48.4808 49.3301L37.5 55.6699C32.859 58.3494 27.141 58.3494 22.5 55.6699L11.5192 49.3301C6.87822 46.6506 4.01924 41.6987 4.01924 36.3397V23.6603C4.01924 18.3013 6.87822 13.3494 11.5192 10.6699L22.5 4.33013Z" fill="black"/>
<path d="M29.4048 22.9265L24.5861 30.1546C24.474 30.3224 24.4101 30.5177 24.401 30.7192C24.392 30.9208 24.4382 31.121 24.5348 31.2982C24.6313 31.4753 24.7745 31.6227 24.9488 31.7244C25.1231 31.826 25.3218 31.8781 25.5236 31.8749H29.0626V36.7312C29.0629 36.9029 29.1183 37.07 29.2207 37.2079C29.3231 37.3457 29.4671 37.447 29.6314 37.4969C29.7957 37.5468 29.9717 37.5426 30.1335 37.4849C30.2952 37.4272 30.4341 37.3191 30.5298 37.1765L35.4142 29.8452C35.5262 29.6774 35.5902 29.4822 35.5993 29.2806C35.6083 29.079 35.562 28.8789 35.4655 28.7017C35.3689 28.5245 35.2258 28.3771 35.0515 28.2755C34.8772 28.1738 34.6784 28.1218 34.4767 28.1249H30.9376V23.3906C30.936 23.2118 30.8773 23.0383 30.7701 22.8952C30.6629 22.7522 30.5128 22.6471 30.3417 22.5953C30.1707 22.5435 29.9875 22.5477 29.819 22.6073C29.6505 22.6669 29.5054 22.7787 29.4048 22.9265Z" fill="#F9FAFB"/>
<path d="M30 15V18.75C32.9837 18.75 35.8452 19.9353 37.955 22.045C40.0647 24.1548 41.25 27.0163 41.25 30H45C45 26.0218 43.4196 22.2064 40.6066 19.3934C37.7936 16.5804 33.9782 15 30 15Z" fill="#9DA3AE"/>
<path d="M16.875 31.875C17.9105 31.875 18.75 31.0355 18.75 30C18.75 28.9645 17.9105 28.125 16.875 28.125C15.8395 28.125 15 28.9645 15 30C15 31.0355 15.8395 31.875 16.875 31.875Z" fill="#9DA3AE"/>
<path d="M20.3726 24.3766C20.8904 23.4798 20.5831 22.333 19.6863 21.8153C18.7895 21.2975 17.6428 21.6048 17.125 22.5016C16.6072 23.3984 16.9145 24.5451 17.8113 25.0629C18.7081 25.5806 19.8548 25.2734 20.3726 24.3766Z" fill="#9DA3AE"/>
<path d="M24.3737 20.3767C25.2705 19.859 25.5778 18.7122 25.0601 17.8154C24.5423 16.9186 23.3956 16.6114 22.4988 17.1291C21.602 17.6469 21.2947 18.7937 21.8125 19.6905C22.3302 20.5873 23.477 20.8945 24.3737 20.3767Z" fill="#9DA3AE"/>
<path d="M42.8716 37.4974C43.3893 36.6006 43.0821 35.4539 42.1853 34.9361C41.2885 34.4183 40.1418 34.7256 39.624 35.6224C39.1062 36.5192 39.4135 37.666 40.3103 38.1837C41.2071 38.7015 42.3538 38.3943 42.8716 37.4974Z" fill="#9DA3AE"/>
<path d="M37.5027 42.8719C38.3995 42.3541 38.7068 41.2074 38.189 40.3106C37.6712 39.4138 36.5245 39.1065 35.6277 39.6243C34.7309 40.142 34.4236 41.2888 34.9414 42.1856C35.4592 43.0824 36.6059 43.3896 37.5027 42.8719Z" fill="#9DA3AE"/>
<path d="M30 45C31.0355 45 31.875 44.1605 31.875 43.125C31.875 42.0895 31.0355 41.25 30 41.25C28.9645 41.25 28.125 42.0895 28.125 43.125C28.125 44.1605 28.9645 45 30 45Z" fill="#9DA3AE"/>
<path d="M25.0591 42.1845C25.5768 41.2877 25.2696 40.1409 24.3728 39.6231C23.476 39.1054 22.3293 39.4126 21.8115 40.3094C21.2937 41.2062 21.601 42.353 22.4978 42.8707C23.3946 43.3885 24.5413 43.0813 25.0591 42.1845Z" fill="#9DA3AE"/>
<path d="M19.6907 38.1842C20.5875 37.6665 20.8948 36.5198 20.377 35.623C19.8592 34.7262 18.7125 34.4189 17.8157 34.9367C16.9189 35.4544 16.6116 36.6011 17.1294 37.4979C17.6472 38.3947 18.7939 38.702 19.6907 38.1842Z" fill="#9DA3AE"/>
</svg>
