<svg width="60" height="60" viewBox="0 0 60 60" fill="none" xmlns="http://www.w3.org/2000/svg">
<path d="M22.5 4.33013C27.141 1.65064 32.859 1.65064 37.5 4.33013L48.4808 10.6699C53.1218 13.3494 55.9808 18.3013 55.9808 23.6603V36.3397C55.9808 41.6987 53.1218 46.6506 48.4808 49.3301L37.5 55.6699C32.859 58.3494 27.141 58.3494 22.5 55.6699L11.5192 49.3301C6.87822 46.6506 4.01924 41.6987 4.01924 36.3397V23.6603C4.01924 18.3013 6.87822 13.3494 11.5192 10.6699L22.5 4.33013Z" fill="black"/>
<path d="M36.0775 29.6258C36.6779 29.6258 37.1419 29.1282 37.1419 28.5477V20.7801L38.3155 21.9688C38.6703 22.3281 39.2434 22.4387 39.6801 22.1346C40.2532 21.7476 40.3078 20.946 39.8438 20.4761L36.7052 17.2695C36.3504 16.9102 35.7773 16.9102 35.4497 17.2695L32.3111 20.4761C31.8471 20.946 31.9017 21.7476 32.4749 22.1346C32.9115 22.4111 33.4847 22.3281 33.8395 21.9688L35.0131 20.7801V28.5477C35.0131 29.1282 35.5043 29.6258 36.0775 29.6258ZM23.5502 43.7512L26.6888 40.5723C27.1528 40.1024 27.0982 39.3007 26.5251 38.9137C26.0884 38.6373 25.5152 38.7202 25.1604 39.0796L23.9869 40.2682V32.473C23.9869 31.8649 23.4956 31.3949 22.9225 31.3949C22.3493 31.3949 21.858 31.8925 21.858 32.473V40.2406L20.6845 39.052C20.3297 38.6926 19.7565 38.582 19.3198 38.8861C18.7467 39.2731 18.6921 40.0747 19.1561 40.5447L22.2947 43.7236C22.6222 44.0829 23.1954 44.0829 23.5502 43.7512Z" fill="#F9FAFB"/>
<path d="M42 34.4633V41.5675C42 42.922 40.9083 44 39.5983 44H32.5841C31.2467 44 30.1823 42.8943 30.1823 41.5675V34.4633C30.1823 33.1088 31.274 32.0307 32.5841 32.0307H39.5983C40.9083 32.0307 42 33.1088 42 34.4633ZM26.4159 28.99C27.7533 28.99 28.8177 27.8843 28.8177 26.5575V19.4533C28.8177 18.0988 27.726 17.0208 26.4159 17.0208H19.4017C18.0644 17.0208 17 18.1265 17 19.4533V26.5575C17 27.912 18.0917 28.99 19.4017 28.99H26.4159Z" fill="#9DA3AE"/>
</svg>
