<svg width="60" height="60" viewBox="0 0 60 60" fill="none" xmlns="http://www.w3.org/2000/svg">
<path d="M22.5 4.33013C27.141 1.65064 32.859 1.65064 37.5 4.33013L48.4808 10.6699C53.1218 13.3494 55.9808 18.3013 55.9808 23.6603V36.3397C55.9808 41.6987 53.1218 46.6506 48.4808 49.3301L37.5 55.6699C32.859 58.3494 27.141 58.3494 22.5 55.6699L11.5192 49.3301C6.87822 46.6506 4.01924 41.6987 4.01924 36.3397V23.6603C4.01924 18.3013 6.87822 13.3494 11.5192 10.6699L22.5 4.33013Z" fill="#212936"/>
<path d="M44.5478 17.3923C44.6168 17.4017 44.6831 17.4245 44.743 17.4592C44.8029 17.4939 44.8551 17.5399 44.8966 17.5945C44.9381 17.6491 44.9681 17.7113 44.9847 17.7773C45.0014 17.8433 45.0045 17.9119 44.9937 17.9791C43.2859 28.0663 39.788 29.8607 36.9986 29.4438C36.3697 29.3462 35.7597 29.1556 35.1896 28.8785C34.3699 28.4811 33.6306 27.9423 33.0074 27.288C32.1566 28.5341 31.6351 29.9666 31.4893 31.4575H27.944C28.0658 30.9734 28.2233 30.4986 28.4152 30.0367V29.7958C28.4152 29.7032 28.4152 29.6116 28.4152 29.521C28.3178 28.1596 27.7124 26.8805 26.7138 25.9259L24.7276 23.9894C24.7167 23.9784 24.7028 23.9708 24.6875 23.9675C24.6721 23.9643 24.6562 23.9656 24.6416 23.9712C24.627 23.9768 24.6145 23.9865 24.6056 23.9991C24.5967 24.0117 24.5918 24.0266 24.5916 24.0419C24.5909 24.0481 24.5909 24.0543 24.5916 24.0604C24.9168 25.2933 25.4946 26.4491 26.29 27.4578C24.2912 28.1898 20.8028 28.2022 20.6984 19.4276C20.6984 19.3828 20.7075 19.3383 20.7252 19.2969C20.7429 19.2555 20.7688 19.2179 20.8014 19.1863C20.8341 19.1547 20.8728 19.1298 20.9154 19.1129C20.958 19.096 21.0035 19.0875 21.0495 19.0879C28.0073 19.1682 29.5633 21.2313 29.5633 23.0659C29.5583 23.4751 29.49 23.8812 29.3609 24.2705C29.2 24.767 28.9587 25.2352 28.6461 25.6572C29.2107 26.1441 29.6913 26.7166 30.0693 27.3528C30.5764 26.7539 31.1515 26.213 31.7834 25.7406L33.4312 24.5546L36.695 22.2104C36.7139 22.1968 36.7283 22.178 36.7364 22.1564C36.7445 22.1349 36.746 22.1115 36.7406 22.0891C36.7352 22.0667 36.7232 22.0464 36.7061 22.0307C36.689 22.0149 36.6676 22.0044 36.6444 22.0004H36.6128C34.6605 22.1959 32.7691 22.7759 31.0529 23.7053C30.3919 20.6167 31.1699 15.5515 44.5478 17.3923ZM21.7484 42.3445H31.5146C32.1655 42.3445 32.8088 42.2083 33.4012 41.9451C33.9936 41.6819 34.5215 41.2979 34.9492 40.8188L41.0657 33.9901C41.2337 33.8016 41.3613 33.5823 41.4411 33.3449C41.5209 33.1076 41.5513 32.857 41.5303 32.608C41.5094 32.3591 41.4376 32.1167 41.3193 31.8952C41.2009 31.6737 41.0384 31.4776 40.8412 31.3185C40.5073 31.0502 40.0876 30.9048 39.6552 30.9077C39.3682 30.909 39.0846 30.9694 38.8231 31.0848C38.5615 31.2003 38.3278 31.3683 38.1371 31.5779L35.2655 34.7035C35.2655 34.7035 35.2655 34.7313 35.2655 34.7468C35.2231 35.5866 34.8506 36.3781 34.2255 36.9563C33.6004 37.5345 32.7709 37.8549 31.9099 37.8507H28.3931C28.295 37.8571 28.1967 37.8437 28.1041 37.8115C28.0115 37.7792 27.9267 37.7287 27.855 37.6631C27.7832 37.5975 27.726 37.5183 27.6869 37.4302C27.6477 37.3421 27.6276 37.2472 27.6276 37.1512C27.6276 37.0552 27.6477 36.9602 27.6869 36.8722C27.726 36.7841 27.7832 36.7048 27.855 36.6393C27.9267 36.5737 28.0115 36.5232 28.1041 36.4909C28.1967 36.4586 28.295 36.4453 28.3931 36.4516H31.9099C32.3995 36.4588 32.8729 36.2809 33.2312 35.9551C33.5896 35.6293 33.8051 35.1809 33.8328 34.7035C33.84 34.4627 33.7976 34.2229 33.7082 33.9983C33.6188 33.7738 33.4841 33.569 33.3122 33.3962C33.1402 33.2234 32.9345 33.0861 32.7072 32.9923C32.48 32.8986 32.2357 32.8503 31.989 32.8504H26.1287L25.1799 32.523C24.0086 32.1211 22.745 32.0495 21.534 32.3166C20.3229 32.5838 19.2135 33.1787 18.3328 34.0333L14 38.2399L20.0501 44L21.7484 42.3445Z" fill="#E5E7EB"/>
<path d="M21.7484 42.3446H31.5146C32.1655 42.3445 32.8088 42.2083 33.4012 41.9452C33.9936 41.682 34.5215 41.2979 34.9492 40.8189L41.0657 33.9901C41.2337 33.8017 41.3613 33.5823 41.4411 33.345C41.5209 33.1076 41.5513 32.8571 41.5303 32.6081C41.5094 32.3591 41.4376 32.1167 41.3193 31.8953C41.2009 31.6738 41.0384 31.4777 40.8412 31.3185C40.5073 31.0503 40.0876 30.9049 39.6552 30.9078C39.3682 30.9091 39.0846 30.9694 38.8231 31.0849C38.5615 31.2004 38.3278 31.3684 38.1371 31.578L35.2655 34.7036C35.2655 34.7036 35.2655 34.7314 35.2655 34.7468C35.2231 35.5866 34.8506 36.3781 34.2255 36.9563C33.6004 37.5346 32.7709 37.855 31.9099 37.8508H28.3931C28.295 37.8571 28.1967 37.8438 28.1041 37.8115C28.0115 37.7792 27.9267 37.7287 27.855 37.6632C27.7832 37.5976 27.726 37.5183 27.6869 37.4302C27.6477 37.3422 27.6276 37.2472 27.6276 37.1512C27.6276 37.0552 27.6477 36.9603 27.6869 36.8722C27.726 36.7842 27.7832 36.7049 27.855 36.6393C27.9267 36.5737 28.0115 36.5232 28.1041 36.4909C28.1967 36.4587 28.295 36.4453 28.3931 36.4517H31.9099C32.3995 36.4588 32.8729 36.2809 33.2312 35.9551C33.5896 35.6293 33.8051 35.1809 33.8328 34.7036C33.84 34.4627 33.7976 34.2229 33.7082 33.9984C33.6188 33.7738 33.4841 33.5691 33.3122 33.3963C33.1402 33.2235 32.9345 33.0861 32.7072 32.9924C32.48 32.8986 32.2357 32.8503 31.989 32.8504H26.1287L25.1799 32.5231C24.0086 32.1211 22.745 32.0496 21.534 32.3167C20.3229 32.5838 19.2135 33.1788 18.3328 34.0333L14 38.2399L20.0501 44L21.7484 42.3446Z" fill="#6C727F"/>
</svg>
