<svg width="60" height="60" viewBox="0 0 60 60" fill="none" xmlns="http://www.w3.org/2000/svg">
<path d="M22.5 4.33013C27.141 1.65064 32.859 1.65064 37.5 4.33013L48.4808 10.6699C53.1218 13.3494 55.9808 18.3013 55.9808 23.6603V36.3397C55.9808 41.6987 53.1218 46.6506 48.4808 49.3301L37.5 55.6699C32.859 58.3494 27.141 58.3494 22.5 55.6699L11.5192 49.3301C6.87822 46.6506 4.01924 41.6987 4.01924 36.3397V23.6603C4.01924 18.3013 6.87822 13.3494 11.5192 10.6699L22.5 4.33013Z" fill="#212936"/>
<path d="M41.9387 26.4129C40.6175 26.4129 39.4896 27.249 39.0707 28.4388H34.6237C34.4948 27.7635 34.2048 27.1203 33.8503 26.5737L36.9761 23.4544C38.1039 24.001 39.4896 23.7759 40.4241 22.8434C41.6164 21.6535 41.6164 19.7241 40.4241 18.5342C39.2318 17.3444 37.2983 17.3444 36.106 18.5342C35.1715 19.4668 34.9782 20.8496 35.4938 21.9751L32.4002 25.1266C31.8524 24.7407 31.2079 24.4834 30.5312 24.3548V19.917C31.7235 19.499 32.5613 18.3734 32.5613 17.055C32.5613 15.3828 31.2079 14 29.5 14C27.7921 14 26.4387 15.3506 26.4387 17.055C26.4387 18.3734 27.2765 19.499 28.4688 19.917V24.3548C27.7921 24.4834 27.1476 24.7728 26.5998 25.1266L23.474 22.0073C24.0218 20.8817 23.7963 19.499 22.8617 18.5664C21.6694 17.3766 19.736 17.3766 18.5437 18.5664C17.3514 19.7562 17.3514 21.6857 18.5437 22.8755C19.4782 23.8081 20.8638 24.001 21.9917 23.4865L25.1175 26.6058C24.7308 27.1525 24.473 27.7956 24.3441 28.471H19.9293C19.5104 27.2811 18.3825 26.445 17.0613 26.445C15.3857 26.445 14 27.7956 14 29.5C14 31.1722 15.3534 32.555 17.0613 32.555C18.3825 32.555 19.5104 31.7189 19.9293 30.529H24.3763C24.5052 31.2044 24.7952 31.8475 25.1497 32.3942L22.0239 35.5135C20.896 34.9668 19.5104 35.1919 18.5759 36.1245C17.3836 37.3143 17.3836 39.2438 18.5759 40.4336C19.7682 41.6234 21.7017 41.6234 22.894 40.4336C23.8285 39.501 24.0218 38.1183 23.5062 36.9927L26.632 33.8734C27.1798 34.2593 27.8243 34.5166 28.501 34.6452V39.083C27.3087 39.501 26.4709 40.6266 26.4709 41.945C26.4709 43.6172 27.8243 45 29.5322 45C31.2401 45 32.5936 43.6494 32.5936 41.945C32.5936 40.6266 31.7557 39.501 30.5634 39.083V34.5809C31.2401 34.4523 31.8846 34.1629 32.4324 33.8091L35.5582 36.9284C35.0104 38.0539 35.236 39.4367 36.1705 40.3693C37.3628 41.5591 39.2963 41.5591 40.4886 40.3693C41.6809 39.1795 41.6809 37.25 40.4886 36.0602C39.5541 35.1276 38.1684 34.9346 37.0405 35.4492L33.8503 32.362C34.237 31.8154 34.4948 31.1722 34.6237 30.4969H39.0707C39.4896 31.6867 40.6175 32.5228 41.9387 32.5228C43.6143 32.5228 45 31.1722 45 29.4678C45 27.7956 43.6143 26.4129 41.9387 26.4129ZM29.5 32.4263C27.8565 32.4263 26.5353 31.1079 26.5353 29.4678C26.5353 27.8278 27.8565 26.5093 29.5 26.5093C31.1435 26.5093 32.4647 27.8278 32.4647 29.4678C32.4647 31.1079 31.1435 32.4263 29.5 32.4263Z" fill="#6C727F"/>
<circle cx="29.5" cy="29.4" r="4" stroke="#E5E7EB" stroke-width="3"/>
</svg>
