<svg width="60" height="60" viewBox="0 0 60 60" fill="none" xmlns="http://www.w3.org/2000/svg">
<path d="M22.5 4.33013C27.141 1.65064 32.859 1.65064 37.5 4.33013L48.4808 10.6699C53.1218 13.3494 55.9808 18.3013 55.9808 23.6603V36.3397C55.9808 41.6987 53.1218 46.6506 48.4808 49.3301L37.5 55.6699C32.859 58.3494 27.141 58.3494 22.5 55.6699L11.5192 49.3301C6.87822 46.6506 4.01924 41.6987 4.01924 36.3397V23.6603C4.01924 18.3013 6.87822 13.3494 11.5192 10.6699L22.5 4.33013Z" fill="black"/>
<path d="M21.9388 39.9895C21.6399 40.0846 21.3787 40.2747 21.1936 40.5318C21.0085 40.7889 20.9091 41.0996 20.9102 41.4183V41.5014C20.9102 41.6982 20.9482 41.8931 21.0223 42.0749C21.0963 42.2567 21.2048 42.4219 21.3415 42.5611C21.4783 42.7002 21.6407 42.8106 21.8194 42.8859C21.998 42.9612 22.1896 43 22.383 43H37.6337C37.8271 43 38.0187 42.9612 38.1974 42.8859C38.376 42.8106 38.5384 42.7002 38.6752 42.5611C38.8119 42.4219 38.9204 42.2567 38.9944 42.0749C39.0685 41.8931 39.1066 41.6982 39.1066 41.5014V41.4183C39.1086 41.102 39.0111 40.7934 38.8284 40.5375C38.6456 40.2816 38.3872 40.0919 38.0909 39.9962L31.9122 37.5372V26.9374C32.2707 26.6474 32.5603 26.2788 32.7593 25.8591C32.9583 25.4394 33.0616 24.9794 33.0616 24.5134C33.0616 24.0474 32.9583 23.5874 32.7593 23.1677C32.5603 22.748 32.2707 22.3794 31.9122 22.0894V20.3648C32.3889 20.3441 32.8594 20.2477 33.3067 20.079C33.8905 19.828 34.5247 19.7221 35.1568 19.77C35.7889 19.818 36.4006 20.0185 36.9414 20.3548L38.46 21.2985L36.0433 27.0537H38.8747L40.1614 23.7973L41.435 27.0537H44.2631L41.8203 21.1988C42.1634 20.7713 42.3334 20.2268 42.2958 19.6762C42.2582 19.1256 42.0159 18.6103 41.618 18.2351C41.2202 17.86 40.6968 17.6532 40.1544 17.6568C39.6119 17.6605 39.0913 17.8743 38.6983 18.2548L37.6076 17.3742C36.8153 16.7497 35.8938 16.3166 34.9128 16.1076C33.9318 15.8987 32.9169 15.9193 31.9449 16.168L31.7163 16.2279C31.5901 15.8685 31.3577 15.5576 31.0511 15.3378C30.7445 15.118 30.3785 15 30.0035 15C29.6284 15 29.2625 15.118 28.9558 15.3378C28.6492 15.5576 28.4169 15.8685 28.2906 16.2279L28.062 16.168C27.0905 15.9196 26.0762 15.8991 25.0958 16.108C24.1153 16.317 23.1944 16.75 22.4026 17.3742L21.3118 18.2415C20.9189 17.861 20.3982 17.6472 19.8558 17.6435C19.3134 17.6399 18.79 17.8467 18.3922 18.2218C17.9943 18.597 17.7519 19.1123 17.7143 19.6629C17.6768 20.2135 17.8468 20.758 18.1898 21.1855L15.7373 27.0537H18.5752L19.8619 23.7973L21.1485 27.0537H23.9799L21.5568 21.2919L23.0753 20.3482C23.6206 20.0119 24.2366 19.8124 24.8726 19.7662C25.5085 19.72 26.1462 19.8284 26.7329 20.0824C27.1719 20.2474 27.6336 20.3416 28.1012 20.3615V22.0927C27.7427 22.3827 27.4532 22.7513 27.2542 23.171C27.0552 23.5907 26.9518 24.0507 26.9518 24.5167C26.9518 24.9827 27.0552 25.4427 27.2542 25.8624C27.4532 26.2821 27.7427 26.6507 28.1012 26.9407V37.5339L21.9388 39.9895Z" fill="#9DA3AE"/>
<path d="M14.0506 29.5602C14.0089 29.6836 13.9927 29.8145 14.003 29.9446H14.0128C14.1657 31.4137 14.8474 32.7732 15.9267 33.7613C17.006 34.7494 18.4065 35.2961 19.8584 35.2961C21.3103 35.2961 22.7108 34.7494 23.7901 33.7613C24.8694 32.7732 25.5512 31.4137 25.704 29.9446C25.7143 29.8145 25.6982 29.6836 25.6565 29.5602C25.6148 29.4368 25.5484 29.3235 25.4617 29.2274C25.3749 29.1313 25.2695 29.0545 25.1522 29.0018C25.0348 28.9491 24.9081 28.9216 24.7798 28.9211H14.9272C14.799 28.9216 14.6722 28.9491 14.5549 29.0018C14.4375 29.0545 14.3322 29.1313 14.2454 29.2274C14.1586 29.3235 14.0923 29.4368 14.0506 29.5602Z" fill="#F9FAFB"/>
<path d="M34.8576 29.0018C34.975 28.9491 35.1017 28.9216 35.23 28.9211H45.0728C45.201 28.9216 45.3278 28.9491 45.4451 29.0018C45.5625 29.0545 45.6678 29.1313 45.7546 29.2274C45.8414 29.3235 45.9077 29.4368 45.9494 29.5602C45.9911 29.6836 46.0073 29.8145 45.997 29.9446C45.8441 31.4137 45.1624 32.7732 44.0831 33.7613C43.0038 34.7494 41.6033 35.2961 40.1514 35.2961C38.6995 35.2961 37.299 34.7494 36.2197 33.7613C35.1404 32.7732 34.4586 31.4137 34.3058 29.9446C34.2955 29.8145 34.3116 29.6836 34.3533 29.5602C34.395 29.4368 34.4614 29.3235 34.5481 29.2274C34.6349 29.1313 34.7403 29.0545 34.8576 29.0018Z" fill="#F9FAFB"/>
</svg>
