<svg width="60" height="60" viewBox="0 0 60 60" fill="none" xmlns="http://www.w3.org/2000/svg">
<path d="M22.5 4.33013C27.141 1.65064 32.859 1.65064 37.5 4.33013L48.4808 10.6699C53.1218 13.3494 55.9808 18.3013 55.9808 23.6603V36.3397C55.9808 41.6987 53.1218 46.6506 48.4808 49.3301L37.5 55.6699C32.859 58.3494 27.141 58.3494 22.5 55.6699L11.5192 49.3301C6.87822 46.6506 4.01924 41.6987 4.01924 36.3397V23.6603C4.01924 18.3013 6.87822 13.3494 11.5192 10.6699L22.5 4.33013Z" fill="#212936"/>
<path d="M14.003 29.9446C13.9927 29.8145 14.0089 29.6836 14.0506 29.5602C14.0923 29.4368 14.1586 29.3235 14.2454 29.2274C14.3322 29.1313 14.4375 29.0545 14.5549 29.0018C14.6722 28.9491 14.799 28.9216 14.9272 28.9211H24.7798C24.9081 28.9216 25.0348 28.9491 25.1522 29.0018C25.2695 29.0545 25.3749 29.1313 25.4617 29.2274C25.5484 29.3235 25.6148 29.4368 25.6565 29.5602C25.6982 29.6836 25.7143 29.8145 25.704 29.9446C25.5512 31.4136 24.8694 32.7732 23.7901 33.7613C22.7108 34.7494 21.3103 35.2961 19.8584 35.2961C18.4065 35.2961 17.006 34.7494 15.9267 33.7613C14.8474 32.7732 14.1657 31.4136 14.0128 29.9446H14.003ZM21.9387 39.9895C21.6397 40.0846 21.3785 40.2747 21.1934 40.5318C21.0083 40.7889 20.9089 41.0996 20.91 41.4183V41.5014C20.91 41.6982 20.9481 41.8931 21.0221 42.0749C21.0961 42.2567 21.2046 42.4219 21.3413 42.5611C21.4781 42.7002 21.6405 42.8106 21.8192 42.8859C21.9979 42.9612 22.1894 43 22.3828 43H37.6335C37.827 43 38.0185 42.9612 38.1972 42.8859C38.3759 42.8106 38.5382 42.7002 38.675 42.5611C38.8118 42.4219 38.9202 42.2567 38.9943 42.0749C39.0683 41.8931 39.1064 41.6982 39.1064 41.5014V41.4183C39.1084 41.102 39.0109 40.7934 38.8282 40.5375C38.6454 40.2816 38.387 40.0919 38.0907 39.9962L31.9121 37.5372V26.9374C32.2705 26.6474 32.5601 26.2788 32.7591 25.8591C32.9581 25.4394 33.0614 24.9794 33.0614 24.5134C33.0614 24.0474 32.9581 23.5874 32.7591 23.1677C32.5601 22.748 32.2705 22.3794 31.9121 22.0894V20.3648C32.3887 20.3441 32.8592 20.2477 33.3065 20.079C33.8903 19.828 34.5245 19.7221 35.1566 19.77C35.7887 19.818 36.4004 20.0185 36.9412 20.3548L38.4598 21.2985L36.0432 27.0537H38.8745L40.1612 23.7973L41.4348 27.0537H44.2629L41.8202 21.1988C42.1632 20.7713 42.3332 20.2268 42.2956 19.6762C42.2581 19.1256 42.0157 18.6103 41.6178 18.2351C41.22 17.86 40.6966 17.6532 40.1542 17.6568C39.6118 17.6605 39.0911 17.8743 38.6982 18.2548L37.6074 17.3742C36.8151 16.7497 35.8936 16.3166 34.9126 16.1076C33.9316 15.8987 32.9167 15.9193 31.9447 16.168L31.7161 16.2279C31.5899 15.8685 31.3575 15.5576 31.0509 15.3378C30.7443 15.118 30.3783 15 30.0033 15C29.6282 15 29.2623 15.118 28.9556 15.3378C28.649 15.5576 28.4167 15.8685 28.2904 16.2279L28.0618 16.168C27.0903 15.9196 26.076 15.8991 25.0956 16.108C24.1152 16.317 23.1942 16.75 22.4024 17.3742L21.3116 18.2415C20.9187 17.861 20.398 17.6472 19.8556 17.6435C19.3132 17.6399 18.7898 17.8467 18.392 18.2218C17.9941 18.597 17.7517 19.1123 17.7142 19.6629C17.6766 20.2135 17.8466 20.758 18.1896 21.1855L15.7371 27.0537H18.575L19.8617 23.7973L21.1484 27.0537H23.9797L21.5566 21.2919L23.0751 20.3482C23.6204 20.0119 24.2364 19.8124 24.8724 19.7662C25.5083 19.72 26.146 19.8284 26.7327 20.0824C27.1717 20.2474 27.6334 20.3416 28.101 20.3615V22.0927C27.7425 22.3827 27.453 22.7513 27.254 23.171C27.055 23.5907 26.9516 24.0507 26.9516 24.5167C26.9516 24.9827 27.055 25.4427 27.254 25.8624C27.453 26.2821 27.7425 26.6507 28.101 26.9407V37.5339L21.9387 39.9895ZM35.23 28.9211C35.1017 28.9216 34.975 28.9491 34.8576 29.0018C34.7403 29.0545 34.6349 29.1313 34.5481 29.2274C34.4614 29.3235 34.395 29.4368 34.3533 29.5602C34.3116 29.6836 34.2955 29.8145 34.3058 29.9446C34.4586 31.4136 35.1404 32.7732 36.2197 33.7613C37.299 34.7494 38.6995 35.2961 40.1514 35.2961C41.6033 35.2961 43.0038 34.7494 44.0831 33.7613C45.1624 32.7732 45.8441 31.4136 45.997 29.9446C46.0073 29.8145 45.9911 29.6836 45.9494 29.5602C45.9077 29.4368 45.8414 29.3235 45.7546 29.2274C45.6678 29.1313 45.5625 29.0545 45.4451 29.0018C45.3278 28.9491 45.201 28.9216 45.0728 28.9211H35.23Z" fill="#6C727F"/>
<path d="M14.0506 29.5602C14.0089 29.6836 13.9927 29.8145 14.003 29.9446H14.0128C14.1657 31.4137 14.8474 32.7732 15.9267 33.7613C17.006 34.7494 18.4065 35.2961 19.8584 35.2961C21.3103 35.2961 22.7108 34.7494 23.7901 33.7613C24.8694 32.7732 25.5512 31.4137 25.704 29.9446C25.7143 29.8145 25.6982 29.6836 25.6565 29.5602C25.6148 29.4368 25.5484 29.3235 25.4617 29.2274C25.3749 29.1313 25.2695 29.0545 25.1522 29.0018C25.0348 28.9491 24.9081 28.9216 24.7798 28.9211H14.9272C14.799 28.9216 14.6722 28.9491 14.5549 29.0018C14.4375 29.0545 14.3322 29.1313 14.2454 29.2274C14.1586 29.3235 14.0923 29.4368 14.0506 29.5602Z" fill="#DCD7FB"/>
<path d="M34.8576 29.0018C34.975 28.9491 35.1017 28.9216 35.23 28.9211H45.0728C45.201 28.9216 45.3278 28.9491 45.4451 29.0018C45.5625 29.0545 45.6678 29.1313 45.7546 29.2274C45.8414 29.3235 45.9077 29.4368 45.9494 29.5602C45.9911 29.6836 46.0073 29.8145 45.997 29.9446C45.8441 31.4137 45.1624 32.7732 44.0831 33.7613C43.0038 34.7494 41.6033 35.2961 40.1514 35.2961C38.6995 35.2961 37.299 34.7494 36.2197 33.7613C35.1404 32.7732 34.4586 31.4137 34.3058 29.9446C34.2955 29.8145 34.3116 29.6836 34.3533 29.5602C34.395 29.4368 34.4614 29.3235 34.5481 29.2274C34.6349 29.1313 34.7403 29.0545 34.8576 29.0018Z" fill="#DCD7FB"/>
</svg>
