<svg width="60" height="60" viewBox="0 0 60 60" fill="none" xmlns="http://www.w3.org/2000/svg">
<path d="M22.5 4.33013C27.141 1.65064 32.859 1.65064 37.5 4.33013L48.4808 10.6699C53.1218 13.3494 55.9808 18.3013 55.9808 23.6603V36.3397C55.9808 41.6987 53.1218 46.6506 48.4808 49.3301L37.5 55.6699C32.859 58.3494 27.141 58.3494 22.5 55.6699L11.5192 49.3301C6.87822 46.6506 4.01924 41.6987 4.01924 36.3397V23.6603C4.01924 18.3013 6.87822 13.3494 11.5192 10.6699L22.5 4.33013Z" fill="#212936"/>
<path d="M42 22.2567C42.0017 21.9991 41.9319 21.746 41.7981 21.5244C41.6643 21.3028 41.4715 21.1212 41.2404 20.999L30.1859 15.1698C29.9751 15.0583 29.7394 15 29.5 15C29.2606 15 29.0249 15.0583 28.8141 15.1698L17.7596 21.0084C17.5285 21.1306 17.3357 21.3123 17.2019 21.5339C17.0681 21.7554 16.9983 22.0086 17 22.2661V32.3902C17 38.9929 22.1731 44.6743 28.8942 44.9856C30.5857 45.0661 32.2763 44.8086 33.8632 44.2287C35.4502 43.6488 36.9005 42.7587 38.1261 41.6122C39.3518 40.4658 40.3271 39.087 40.993 37.5596C41.6589 36.0321 42.0015 34.3879 42 32.7266V22.2567ZM38.1538 32.7266C38.1538 34.9781 37.2421 37.1373 35.6192 38.7294C33.9963 40.3214 31.7951 41.2158 29.5 41.2158V29.8969H20.8462V23.6621L29.5 19.0905V29.8969H38.1538V32.7266Z" fill="#6C727F"/>
<path d="M38 23.5L29.5 19V30H38V23.5Z" fill="#E5E7EB"/>
<path d="M29.5 41.0001V30.0001H21V34.0001C21 38.0001 26.6667 40.3334 29.5 41.0001Z" fill="#E5E7EB"/>
</svg>
